<?xml version="1.0" encoding="UTF-8"?>
<svg version="1.1" xmlns="http://www.w3.org/2000/svg" width="600" height="360">
<path d="M0 0 C1.0842627 0.26941406 2.16852539 0.53882812 3.28564453 0.81640625 C4.78587158 1.20119141 4.78587158 1.20119141 6.31640625 1.59375 C7.64007202 1.92922852 7.64007202 1.92922852 8.99047852 2.27148438 C11 3 11 3 12 5 C14.09759601 5.47365071 16.19708813 5.94024615 18.3046875 6.3671875 C22.99391075 7.46813557 27.61727994 8.99647083 32 11 C32.33 11.66 32.66 12.32 33 13 C34.2065625 13.2165625 34.2065625 13.2165625 35.4375 13.4375 C38 14 38 14 40 17 C35.61133143 17.37617159 33.69620237 16.22967772 30 14 C26.31887384 12.62704928 22.53415189 11.61457008 18.75 10.5625 C17.65115479 10.25683105 16.55230957 9.95116211 15.42016602 9.63623047 C-1.36570562 5.12958755 -18.61607593 2.42671318 -36 2 C-37.23878906 1.96003906 -38.47757813 1.92007813 -39.75390625 1.87890625 C-62.3708897 1.49092571 -85.18999682 4.59131795 -106.875 11 C-108.07793701 11.35529785 -108.07793701 11.35529785 -109.30517578 11.71777344 C-113.84979165 13.13250708 -118.00035354 14.88828612 -122.21826172 17.08984375 C-124.46145605 18.23572323 -126.76375633 19.12719706 -129.125 20 C-133.15297845 21.57189403 -136.44080562 23.52403869 -140 26 C-141.28344155 26.64172078 -142.57584962 27.26570854 -143.875 27.875 C-148.34552347 30.03258855 -152.13188578 32.91373866 -156 36 C-155.67 36.66 -155.34 37.32 -155 38 C-154.39722733 37.99777939 -153.79445465 37.99555878 -153.17341614 37.99327087 C-146.89548333 37.97113438 -140.61756162 37.95605842 -134.33959961 37.94506836 C-131.99714711 37.94004199 -129.65469775 37.93321992 -127.31225586 37.92456055 C-123.94383978 37.91242082 -120.57546522 37.90675469 -117.20703125 37.90234375 C-116.16102249 37.89718246 -115.11501373 37.89202118 -114.03730774 37.88670349 C-112.56634895 37.88659019 -112.56634895 37.88659019 -111.06567383 37.88647461 C-110.20629715 37.884254 -109.34692047 37.88203339 -108.46150208 37.87974548 C-105.88900339 38.00542264 -103.50932729 38.43351574 -101 39 C-101.42152344 39.61488281 -101.84304687 40.22976562 -102.27734375 40.86328125 C-102.82519531 41.67152344 -103.37304688 42.47976562 -103.9375 43.3125 C-104.48277344 44.11300781 -105.02804688 44.91351563 -105.58984375 45.73828125 C-107.13837326 48.0258143 -107.13837326 48.0258143 -108 51 C-109 52 -110 53 -111 54 C-111 54.66 -111 55.32 -111 56 C-111.66 56 -112.32 56 -113 56 C-113.2475 56.556875 -113.495 57.11375 -113.75 57.6875 C-114.1625 58.450625 -114.575 59.21375 -115 60 C-115.68799683 61.29043213 -115.68799683 61.29043213 -116.38989258 62.60693359 C-120.48717189 66.36350752 -124.64334608 65.67012475 -130.01171875 65.6015625 C-131.09451614 65.60956879 -132.17731354 65.61757507 -133.29292297 65.62582397 C-136.75816087 65.64892151 -140.22223023 65.63942961 -143.6875 65.625 C-147.13469966 65.62114272 -150.58137682 65.6247 -154.02851868 65.64559937 C-156.17219475 65.65760864 -158.31601729 65.65515247 -160.4596405 65.63589478 C-166.52563931 65.65835216 -172.59644177 65.94108902 -178 69 C-178.495 70.485 -178.495 70.485 -179 72 C-180.33333333 73.33333333 -181.66666667 74.66666667 -183 76 C-185.56524338 83.26818958 -185.22697023 89.48480732 -184 97 C-182.515 97.495 -182.515 97.495 -181 98 C-180.67 98.99 -180.34 99.98 -180 101 C-173.59892198 106.02941844 -167.19401298 107.3153706 -159.203125 107.23046875 C-158.48767517 107.23001053 -157.77222534 107.22955231 -157.03509521 107.2290802 C-155.5359123 107.22608036 -154.03673186 107.2182629 -152.53759766 107.20581055 C-150.2424011 107.18743918 -147.94760653 107.18530202 -145.65234375 107.18554688 C-144.19010068 107.18063485 -142.72786033 107.17480791 -141.265625 107.16796875 C-140.58123352 107.16685593 -139.89684204 107.1657431 -139.19171143 107.16459656 C-136.18470174 107.13452076 -133.87739565 106.95913188 -131 106 C-131 102.7 -131 99.4 -131 96 C-145.19 96.33 -159.38 96.66 -174 97 C-173.01880546 93.07522185 -172.02840228 91.37052558 -169.6875 88.1875 C-167.53826095 85.21365495 -165.5355691 82.30186991 -163.8125 79.0625 C-162.00595159 76.01005614 -160.98664137 74.7842065 -158 73 C-155.5136261 72.67047119 -155.5136261 72.67047119 -152.6965332 72.73535156 C-151.11017815 72.76088104 -151.11017815 72.76088104 -149.49177551 72.78692627 C-148.35624741 72.82114685 -147.2207193 72.85536743 -146.05078125 72.890625 C-144.88242233 72.91469421 -143.71406342 72.93876343 -142.51029968 72.96356201 C-140.04307691 73.01719482 -137.57600481 73.0781904 -135.10913086 73.14599609 C-131.31709269 73.24987419 -127.52506907 73.33199788 -123.73242188 73.41015625 C-121.33851241 73.46488059 -118.94463052 73.52082792 -116.55078125 73.578125 C-115.40918045 73.60424866 -114.26757965 73.63037231 -113.09138489 73.6572876 C-111.51921455 73.70173004 -111.51921455 73.70173004 -109.9152832 73.74707031 C-108.98802933 73.77166321 -108.06077545 73.7962561 -107.10542297 73.82159424 C-105 74 -105 74 -104 75 C-103.90106222 76.77446009 -103.87200908 78.55286251 -103.87060547 80.33007812 C-103.86745331 81.46795776 -103.86430115 82.6058374 -103.86105347 83.77819824 C-103.86408981 85.63595886 -103.86408981 85.63595886 -103.8671875 87.53125 C-103.86623077 88.79263794 -103.86527405 90.05402588 -103.86428833 91.3536377 C-103.86360625 94.02697138 -103.86496471 96.70021437 -103.86962891 99.37353516 C-103.87532619 102.80706691 -103.87204699 106.2405205 -103.86605644 109.67404938 C-103.86158238 112.93895243 -103.86471117 116.20384593 -103.8671875 119.46875 C-103.86516327 120.70725708 -103.86313904 121.94576416 -103.86105347 123.22180176 C-103.86578171 124.92862122 -103.86578171 124.92862122 -103.87060547 126.66992188 C-103.87140106 127.67728394 -103.87219666 128.684646 -103.87301636 129.72253418 C-104 132 -104 132 -105 133 C-107.2483475 133.11022521 -109.50020483 133.14914893 -111.7512207 133.16113281 C-112.45695221 133.16609772 -113.16268372 133.17106262 -113.88980103 133.17617798 C-116.23513754 133.19083683 -118.58040637 133.19760845 -120.92578125 133.203125 C-122.55144758 133.20887429 -124.17711388 133.21463205 -125.80278015 133.22039795 C-129.21674924 133.23091915 -132.6306947 133.23675418 -136.04467773 133.24023438 C-140.41966581 133.24571529 -144.79434204 133.26972978 -149.16923237 133.29820633 C-152.52954519 133.31683163 -155.88978297 133.32203829 -159.25014305 133.32357025 C-160.86289356 133.3265986 -162.4756427 133.33463328 -164.08834267 133.34775543 C-166.34600107 133.36481086 -168.60289901 133.36293708 -170.8605957 133.35644531 C-172.14553421 133.36009094 -173.43047272 133.36373657 -174.75434875 133.36749268 C-178.22492722 132.97453235 -179.47015574 132.30725644 -182 130 C-183.42043432 129.35673492 -184.85927143 128.75278784 -186.3125 128.1875 C-195.96987903 123.99001173 -203.96989018 115.12816988 -209 106 C-210.34533382 101.96399855 -211.27933411 97.84774679 -212.28125 93.71484375 C-212.88605575 91.05838204 -212.88605575 91.05838204 -214 89 C-214.06996014 87.29297265 -214.08440154 85.58331997 -214.0625 83.875 C-214.05347656 82.96492188 -214.04445313 82.05484375 -214.03515625 81.1171875 C-214.02355469 80.41851562 -214.01195312 79.71984375 -214 79 C-213.34 79 -212.68 79 -212 79 C-212 77.02 -212 75.04 -212 73 C-211.01 73.33 -210.02 73.66 -209 74 C-208.13794359 76.4642923 -207.46644779 78.78346927 -206.875 81.3125 C-206.62169922 82.32860352 -206.62169922 82.32860352 -206.36328125 83.36523438 C-205.6989744 86.04076944 -205.05277467 88.70302252 -204.5703125 91.41796875 C-204.38210937 91.94003906 -204.19390625 92.46210938 -204 93 C-203.01 93.33 -202.02 93.66 -201 94 C-201 95.32 -201 96.64 -201 98 C-200.38655243 99.68698082 -199.72904086 101.35965807 -199 103 C-198.34 103 -197.68 103 -197 103 C-196.505 103.969375 -196.01 104.93875 -195.5 105.9375 C-193.10954946 110.18141581 -189.93790282 113.55306289 -186.609375 117.08203125 C-185 119 -185 119 -185 121 C-183.68 121.33 -182.36 121.66 -181 122 C-181.598125 121.44828125 -182.19625 120.8965625 -182.8125 120.328125 C-186.46582959 116.43993851 -188.56075509 111.70754544 -191 107 C-191.57814453 105.95585937 -191.57814453 105.95585937 -192.16796875 104.890625 C-200.17671657 90.03915394 -201.22573916 71.18034906 -196.984375 55.03515625 C-194.56276427 47.56852315 -191.02826444 40.71377406 -187 34 C-186.34 34 -185.68 34 -185 34 C-185 33.34 -185 32.68 -185 32 C-179.39 32 -173.78 32 -168 32 C-168.185625 30.040625 -168.37125 28.08125 -168.5625 26.0625 C-168.75358962 24.04544287 -168.90997602 22.02408755 -169 20 C-168 19 -168 19 -165.71484375 18.90234375 C-164.79832031 18.91394531 -163.88179687 18.92554687 -162.9375 18.9375 C-162.01839844 18.94652344 -161.09929687 18.95554687 -160.15234375 18.96484375 C-159.44207031 18.97644531 -158.73179687 18.98804687 -158 19 C-158.05800781 18.38511719 -158.11601562 17.77023438 -158.17578125 17.13671875 C-158.22089844 16.32847656 -158.26601562 15.52023438 -158.3125 14.6875 C-158.37050781 13.88699219 -158.42851562 13.08648437 -158.48828125 12.26171875 C-158 10 -158 10 -155.96875 8.4453125 C-154.9890625 7.96835938 -154.009375 7.49140625 -153 7 C-152.43498779 6.70875244 -151.86997559 6.41750488 -151.2878418 6.11743164 C-104.66972754 -17.55378475 -48.9188675 -12.57561883 0 0 Z " fill="#1A6EB5" transform="translate(340,95)"/>
<path d="M0 0 C1.6166669 0.0037414 3.2333361 0.00658302 4.8500061 0.00857544 C9.05520152 0.01612335 13.26025341 0.03569308 17.46539307 0.0579834 C21.77638814 0.07863512 26.08740696 0.087618 30.3984375 0.09765625 C38.82037754 0.1189496 47.24220205 0.15297519 55.6640625 0.1953125 C54.53882024 6.13463468 52.92548388 8.93389112 48.6640625 13.1953125 C45.19269444 17.35977033 45.19269444 17.35977033 43.20703125 22.2890625 C42.6640625 24.1953125 42.6640625 24.1953125 39.6640625 26.1953125 C37.5078125 26.609375 37.5078125 26.609375 35.1640625 26.8203125 C34.390625 26.89507812 33.6171875 26.96984375 32.8203125 27.046875 C28.53329815 27.34199555 26.96833306 26.92988124 23.6640625 24.1953125 C24.4404557 27.2698481 24.4404557 27.2698481 26.6640625 29.1953125 C27.48518763 31.70167872 28.12701522 34.23156906 28.78515625 36.78515625 C29.70425425 39.3055272 30.63668412 40.48418256 32.6640625 42.1953125 C32.3340625 43.1853125 32.0040625 44.1753125 31.6640625 45.1953125 C31.99679217 46.86209979 32.33030128 48.52873147 32.6640625 50.1953125 C34.04941375 67.71473981 31.36862192 82.40603345 22.1015625 97.5703125 C21.68777344 98.25867188 21.27398437 98.94703125 20.84765625 99.65625 C20.45707031 100.16414063 20.06648437 100.67203125 19.6640625 101.1953125 C19.0040625 101.1953125 18.3440625 101.1953125 17.6640625 101.1953125 C17.385625 101.78699219 17.1071875 102.37867188 16.8203125 102.98828125 C12.94651191 110.382529 6.54795619 114.79726931 -0.3359375 119.1953125 C-0.88958984 119.55415527 -1.44324219 119.91299805 -2.01367188 120.28271484 C-11.05533387 126.10409293 -20.15106561 130.6964367 -30.3359375 134.1953125 C-30.97160645 134.41670898 -31.60727539 134.63810547 -32.26220703 134.86621094 C-69.47593014 147.54065227 -110.29465914 146.14724103 -148.3359375 138.1953125 C-149.11501465 138.04288086 -149.8940918 137.89044922 -150.69677734 137.73339844 C-168.87146414 134.1226368 -186.09892491 126.82705689 -203.3359375 120.1953125 C-203.3359375 119.5353125 -203.3359375 118.8753125 -203.3359375 118.1953125 C-204.3259375 117.8653125 -205.3159375 117.5353125 -206.3359375 117.1953125 C-203.50271753 116.05519748 -202.37413757 116.18223731 -199.42578125 117.19140625 C-197.86537109 117.90490234 -197.86537109 117.90490234 -196.2734375 118.6328125 C-191.97043874 120.65712559 -191.97043874 120.65712559 -187.3359375 121.1953125 C-187.3359375 121.8553125 -187.3359375 122.5153125 -187.3359375 123.1953125 C-186.41425781 123.31003906 -185.49257812 123.42476563 -184.54296875 123.54296875 C-180.34985292 124.14138433 -176.24087248 125.05142803 -172.10571289 125.96020508 C-142.61074734 132.39653221 -112.13773417 133.75231479 -82.3359375 128.1953125 C-81.41280762 128.02370605 -80.48967773 127.85209961 -79.53857422 127.67529297 C-61.62429562 124.21847666 -45.42906535 118.534766 -29.2109375 110.1953125 C-28.2629126 109.70925537 -27.3148877 109.22319824 -26.33813477 108.72241211 C-20.15808194 105.44296612 -14.71178534 101.66939455 -9.3359375 97.1953125 C-10.32115894 95.99003005 -10.32115894 95.99003005 -12.20252991 96.07505798 C-13.01749435 96.07727859 -13.8324588 96.07949921 -14.67211914 96.08178711 C-15.5929982 96.08186264 -16.51387726 96.08193817 -17.46266174 96.08201599 C-18.96421059 96.08975792 -18.96421059 96.08975792 -20.49609375 96.09765625 C-22.02549843 96.09977867 -22.02549843 96.09977867 -23.58580017 96.10194397 C-26.85670857 96.10756153 -30.12754963 96.120117 -33.3984375 96.1328125 C-35.61002506 96.13782524 -37.82161368 96.14238854 -40.03320312 96.14648438 C-45.46747107 96.15753666 -50.90169947 96.17429187 -56.3359375 96.1953125 C-55.21725012 91.48504985 -53.43981872 87.94583565 -50.3359375 84.1953125 C-49.6759375 83.8653125 -49.0159375 83.5353125 -48.3359375 83.1953125 C-47.63199138 81.88127974 -46.97248092 80.5432868 -46.3359375 79.1953125 C-45.34179157 77.52514734 -44.342365 75.85810577 -43.3359375 74.1953125 C-43.0059375 73.5353125 -42.6759375 72.8753125 -42.3359375 72.1953125 C-39.0539544 68.9133294 -34.49416199 69.23545259 -30.03710938 69.15255737 C-27.55153257 69.17458107 -25.07036155 69.23789796 -22.5859375 69.31640625 C-21.68721924 69.34001724 -20.78850098 69.36362823 -19.86254883 69.38795471 C-17.02015672 69.46391786 -14.17808477 69.54822765 -11.3359375 69.6328125 C-9.39715056 69.6861008 -7.45834847 69.7388406 -5.51953125 69.79101562 C-0.79146778 69.91944064 3.93632717 70.05534665 8.6640625 70.1953125 C8.9940625 69.5353125 9.3240625 68.8753125 9.6640625 68.1953125 C9.6640625 68.8553125 9.6640625 69.5153125 9.6640625 70.1953125 C11.60806034 70.04427422 11.60806034 70.04427422 13.6640625 69.1953125 C15.01509243 67.1232571 15.01509243 67.1232571 15.9140625 64.6328125 C16.24921875 63.80652344 16.584375 62.98023438 16.9296875 62.12890625 C17.29320312 61.17177734 17.29320312 61.17177734 17.6640625 60.1953125 C14.27125259 58.49890755 10.40401506 58.97210151 6.66796875 58.9140625 C5.76465317 58.89565308 4.86133759 58.87724365 3.9306488 58.85827637 C1.02935412 58.79943564 -1.87200289 58.74675893 -4.7734375 58.6953125 C-37.2815664 58.1092844 -37.2815664 58.1092844 -42.3359375 53.1953125 C-43.57294119 52.50482984 -44.8239618 51.83902188 -46.0859375 51.1953125 C-49.3359375 49.1953125 -49.3359375 49.1953125 -50.0859375 47.1953125 C-50.1684375 46.5353125 -50.2509375 45.8753125 -50.3359375 45.1953125 C-50.82707031 44.64617187 -51.31820312 44.09703125 -51.82421875 43.53125 C-55.58331941 37.72261383 -53.95927128 27.72922383 -52.57421875 21.1015625 C-50.11159404 11.67934624 -50.11159404 11.67934624 -47.3203125 9.9375 C-46.33804688 9.57011719 -46.33804688 9.57011719 -45.3359375 9.1953125 C-44.6759375 8.5353125 -44.0159375 7.8753125 -43.3359375 7.1953125 C-42.6553125 7.0303125 -41.9746875 6.8653125 -41.2734375 6.6953125 C-40.314375 6.4478125 -40.314375 6.4478125 -39.3359375 6.1953125 C-39.0059375 5.5353125 -38.6759375 4.8753125 -38.3359375 4.1953125 C-26.18047057 -0.32765194 -12.77929761 -0.0883213 0 0 Z M-0.82421875 26.4140625 C-1.52741745 26.43625854 -2.23061615 26.45845459 -2.9551239 26.48132324 C-5.18625255 26.55191592 -7.41734465 26.62359794 -9.6484375 26.6953125 C-11.16731542 26.74356169 -12.68619561 26.79173953 -14.20507812 26.83984375 C-17.91539119 26.95750756 -21.62567229 27.07614792 -25.3359375 27.1953125 C-26.91484201 30.66451422 -26.91484201 30.66451422 -27.1484375 34.3828125 C-26.36557312 36.56003061 -26.36557312 36.56003061 -23.3359375 38.1953125 C-21.2976421 38.48359915 -21.2976421 38.48359915 -19.0480957 38.42236328 C-18.18742996 38.42221222 -17.32676422 38.42206116 -16.4400177 38.42190552 C-15.51492905 38.41158295 -14.58984039 38.40126038 -13.63671875 38.390625 C-12.21144112 38.38638016 -12.21144112 38.38638016 -10.75737 38.38204956 C-7.72093135 38.37084965 -4.68478708 38.34574538 -1.6484375 38.3203125 C0.40950095 38.31028246 2.46744402 38.30115665 4.52539062 38.29296875 C9.5717281 38.27091092 14.61784538 38.23638232 19.6640625 38.1953125 C19.0040625 37.8653125 18.3440625 37.5353125 17.6640625 37.1953125 C18.0353125 36.4528125 18.4065625 35.7103125 18.7890625 34.9453125 C19.88462952 32.30781412 19.88462952 32.30781412 19.1640625 30.0078125 C16.9967737 27.3890052 14.93268824 26.96440091 11.6640625 26.1953125 C7.50139418 26.08235247 3.33677644 26.28144114 -0.82421875 26.4140625 Z " fill="#196EB6" transform="translate(416.3359375,132.8046875)"/>
<path d="M0 0 C1.16015625 2.125 1.16015625 2.125 2 4 C2.66 4.33 3.32 4.66 4 5 C4 5.99 4 6.98 4 8 C4.66 8.33 5.32 8.66 6 9 C11.18342508 17.15211398 11.48268258 25.68511875 11.5 35.0625 C11.50596191 36.14974365 11.51192383 37.2369873 11.51806641 38.35717773 C11.37798271 47.56178602 9.88969477 56.58436752 6 65 C5.01 65.495 5.01 65.495 4 66 C3.34 66.99 2.68 67.98 2 69 C0.34997172 70.35386936 -1.3174387 71.68678142 -3 73 C-3.556875 73.5775 -4.11375 74.155 -4.6875 74.75 C-6 76 -6 76 -8 76 C-8.33 76.66 -8.66 77.32 -9 78 C-19.92348615 84.78740887 -33.86063315 84.34366038 -46.25 84.3125 C-47.54679687 84.32861328 -48.84359375 84.34472656 -50.1796875 84.36132812 C-57.38800392 84.36499835 -63.36721148 83.87153953 -70 81 C-70.91910156 80.66355469 -71.83820313 80.32710938 -72.78515625 79.98046875 C-83.74620323 75.12822397 -90.63779028 67.01616005 -95 56 C-99.89232921 39.04343245 -98.86002413 22.31790989 -90.5 6.62109375 C-90.005 5.75613281 -89.51 4.89117187 -89 4 C-88.50757813 3.08605469 -88.01515625 2.17210937 -87.5078125 1.23046875 C-85.4790436 -1.77063758 -83.38247153 -1.97055214 -80 -3 C-79.67 -3.99 -79.34 -4.98 -79 -6 C-76.8515625 -7.05859375 -76.8515625 -7.05859375 -74 -8 C-72.99710937 -8.34160156 -71.99421875 -8.68320313 -70.9609375 -9.03515625 C-62.08167851 -11.57899624 -53.47755072 -12.53242809 -44.25 -12.9375 C-43.1264209 -12.99494385 -42.0028418 -13.0523877 -40.84521484 -13.11157227 C-26.19609433 -13.56593346 -11.75282519 -8.88682434 0 0 Z M-69 18.25 C-73.03327753 23.7957566 -73.34209675 29.88216607 -73.3125 36.5 C-73.32861328 37.22058594 -73.34472656 37.94117188 -73.36132812 38.68359375 C-73.36598388 43.832863 -72.40708878 47.43180231 -70 52 C-68.06616713 53.30065921 -68.06616713 53.30065921 -66 54 C-65.54625 54.48597656 -65.0925 54.97195312 -64.625 55.47265625 C-58.70206995 61.03964099 -46.18705961 59.33122976 -38.5859375 59.1875 C-30.60994253 58.92652675 -23.23680514 58.4572045 -17 53 C-13.23709342 48.58831642 -13.26717395 43.56207584 -13 38 C-12.94714844 37.14535156 -12.89429688 36.29070312 -12.83984375 35.41015625 C-12.64056885 29.7871384 -13.14129538 24.93984158 -16 20 C-19.30208672 16.60866769 -22.47586683 15.25135598 -27 14 C-27.6069873 13.82243164 -28.21397461 13.64486328 -28.83935547 13.46191406 C-33.50566042 12.46432661 -38.3729785 12.7720001 -43.125 12.75 C-44.21554687 12.729375 -45.30609375 12.70875 -46.4296875 12.6875 C-54.60868426 12.64836604 -62.2893417 13.21700628 -69 18.25 Z " fill="#1C1C1A" transform="translate(343,145)"/>
<path d="M0 0 C0.99 0.33 1.98 0.66 3 1 C3.86205641 3.4642923 4.53355221 5.78346927 5.125 8.3125 C5.29386719 8.98990234 5.46273437 9.66730469 5.63671875 10.36523438 C6.3010256 13.04076944 6.94722533 15.70302252 7.4296875 18.41796875 C7.71199219 19.20107422 7.71199219 19.20107422 8 20 C8.99 20.33 9.98 20.66 11 21 C11 22.32 11 23.64 11 25 C11.61344757 26.68698082 12.27095914 28.35965807 13 30 C13.66 30 14.32 30 15 30 C15.495 30.969375 15.99 31.93875 16.5 32.9375 C18.89045054 37.18141581 22.06209718 40.55306289 25.390625 44.08203125 C27 46 27 46 27 48 C27.5775 48.28875 28.155 48.5775 28.75 48.875 C30.83333333 49.91666667 32.91666667 50.95833333 35 52 C34.505 49.03 34.505 49.03 34 46 C33.34 46 32.68 46 32 46 C32 45.34 32 44.68 32 44 C31.34 44 30.68 44 30 44 C26.62476112 34.50111344 24.1277145 26.23481648 25 16 C25.66 16.33 26.32 16.66 27 17 C27.40729228 19.32156597 27.74438677 21.6568787 28 24 C28.99 24.33 29.98 24.66 31 25 C31.495 26.485 31.495 26.485 32 28 C38.40107802 33.02941844 44.80598702 34.3153706 52.796875 34.23046875 C53.51232483 34.23001053 54.22777466 34.22955231 54.96490479 34.2290802 C56.4640877 34.22608036 57.96326814 34.2182629 59.46240234 34.20581055 C61.7575989 34.18743918 64.05239347 34.18530202 66.34765625 34.18554688 C67.80989932 34.18063485 69.27213967 34.17480791 70.734375 34.16796875 C71.41876648 34.16685593 72.10315796 34.1657431 72.80828857 34.16459656 C75.81529826 34.13452076 78.12260435 33.95913188 81 33 C81 29.7 81 26.4 81 23 C66.81 23.33 52.62 23.66 38 24 C38.98119454 20.07522185 39.97159772 18.37052558 42.3125 15.1875 C44.46173905 12.21365495 46.4644309 9.30186991 48.1875 6.0625 C49.99404841 3.01005614 51.01335863 1.7842065 54 0 C56.4863739 -0.32952881 56.4863739 -0.32952881 59.3034668 -0.26464844 C60.36103683 -0.24762878 61.41860687 -0.23060913 62.50822449 -0.21307373 C64.21151665 -0.16174286 64.21151665 -0.16174286 65.94921875 -0.109375 C67.11757767 -0.08530579 68.28593658 -0.06123657 69.48970032 -0.03643799 C71.95692309 0.01719482 74.42399519 0.0781904 76.89086914 0.14599609 C80.68290731 0.24987419 84.47493093 0.33199788 88.26757812 0.41015625 C90.66148759 0.46488059 93.05536948 0.52082792 95.44921875 0.578125 C96.59081955 0.60424866 97.73242035 0.63037231 98.90861511 0.6572876 C100.48078545 0.70173004 100.48078545 0.70173004 102.0847168 0.74707031 C103.47559761 0.78395966 103.47559761 0.78395966 104.89457703 0.82159424 C107 1 107 1 108 2 C108.09893778 3.77446009 108.12799092 5.55286251 108.12939453 7.33007812 C108.13254669 8.46795776 108.13569885 9.6058374 108.13894653 10.77819824 C108.13591019 12.63595886 108.13591019 12.63595886 108.1328125 14.53125 C108.13376923 15.79263794 108.13472595 17.05402588 108.13571167 18.3536377 C108.13639375 21.02697138 108.13503529 23.70021437 108.13037109 26.37353516 C108.12467381 29.80706691 108.12795301 33.2405205 108.13394356 36.67404938 C108.13841762 39.93895243 108.13528883 43.20384593 108.1328125 46.46875 C108.13483673 47.70725708 108.13686096 48.94576416 108.13894653 50.22180176 C108.13421829 51.92862122 108.13421829 51.92862122 108.12939453 53.66992188 C108.12859894 54.67728394 108.12780334 55.684646 108.12698364 56.72253418 C108 59 108 59 107 60 C104.7516525 60.11022521 102.49979517 60.14914893 100.2487793 60.16113281 C99.54304779 60.16609772 98.83731628 60.17106262 98.11019897 60.17617798 C95.76486246 60.19083683 93.41959363 60.19760845 91.07421875 60.203125 C89.44855242 60.20887429 87.82288612 60.21463205 86.19721985 60.22039795 C82.78325076 60.23091915 79.3693053 60.23675418 75.95532227 60.24023438 C71.58033419 60.24571529 67.20565796 60.26972978 62.83076763 60.29820633 C59.47045481 60.31683163 56.11021703 60.32203829 52.74985695 60.32357025 C51.13710644 60.3265986 49.5243573 60.33463328 47.91165733 60.34775543 C45.65399893 60.36481086 43.39710099 60.36293708 41.1394043 60.35644531 C39.85446579 60.36009094 38.56952728 60.36373657 37.24565125 60.36749268 C33.77507278 59.97453235 32.52984426 59.30725644 30 57 C28.57956568 56.35673492 27.14072857 55.75278784 25.6875 55.1875 C16.03012097 50.99001173 8.03010982 42.12816988 3 33 C1.65466618 28.96399855 0.72066589 24.84774679 -0.28125 20.71484375 C-0.88605575 18.05838204 -0.88605575 18.05838204 -2 16 C-2.06996014 14.29297265 -2.08440154 12.58331997 -2.0625 10.875 C-2.05347656 9.96492187 -2.04445313 9.05484375 -2.03515625 8.1171875 C-2.02355469 7.41851562 -2.01195313 6.71984375 -2 6 C-1.34 6 -0.68 6 0 6 C0 4.02 0 2.04 0 0 Z " fill="#1C1C1A" transform="translate(128,168)"/>
<path d="M0 0 C1.6166669 0.0037414 3.2333361 0.00658302 4.8500061 0.00857544 C9.05520152 0.01612335 13.26025341 0.03569308 17.46539307 0.0579834 C21.77638814 0.07863512 26.08740696 0.087618 30.3984375 0.09765625 C38.82037754 0.1189496 47.24220205 0.15297519 55.6640625 0.1953125 C54.53882024 6.13463468 52.92548388 8.93389112 48.6640625 13.1953125 C45.19269444 17.35977033 45.19269444 17.35977033 43.20703125 22.2890625 C42.6640625 24.1953125 42.6640625 24.1953125 39.6640625 26.1953125 C37.5078125 26.609375 37.5078125 26.609375 35.1640625 26.8203125 C34.390625 26.89507812 33.6171875 26.96984375 32.8203125 27.046875 C27.88524761 27.38660773 27.88524761 27.38660773 25.3515625 25.1953125 C22.13172162 21.78895644 19.40403633 17.9898467 16.6640625 14.1953125 C16.0040625 14.5253125 15.3440625 14.8553125 14.6640625 15.1953125 C15.11458984 16.20851562 15.11458984 16.20851562 15.57421875 17.2421875 C15.95449219 18.13421875 16.33476562 19.02625 16.7265625 19.9453125 C17.10941406 20.82703125 17.49226563 21.70875 17.88671875 22.6171875 C18.71006258 25.34787559 18.6414617 26.56432597 17.6640625 29.1953125 C17.1690625 28.2053125 17.1690625 28.2053125 16.6640625 27.1953125 C3.1340625 27.5253125 -10.3959375 27.8553125 -24.3359375 28.1953125 C-26.5846781 31.7829929 -26.5846781 31.7829929 -26.0859375 34.3828125 C-25.48585317 36.39346836 -25.48585317 36.39346836 -23.3359375 37.1953125 C-21.91710869 37.31278728 -20.49322336 37.37216678 -19.06982422 37.40063477 C-18.18906219 37.42057999 -17.30830017 37.44052521 -16.40084839 37.46107483 C-15.44872467 37.47778732 -14.49660095 37.49449982 -13.515625 37.51171875 C-12.05493088 37.5428904 -12.05493088 37.5428904 -10.56472778 37.57469177 C-7.44687103 37.64019848 -4.32892847 37.69907747 -1.2109375 37.7578125 C0.89974854 37.80099665 3.01042583 37.8446109 5.12109375 37.88867188 C10.301992 37.99588097 15.48297606 38.09764528 20.6640625 38.1953125 C20.70468966 40.603036 20.73437929 43.01006729 20.7578125 45.41796875 C20.77038086 46.09621704 20.78294922 46.77446533 20.79589844 47.4732666 C20.832809 52.53155101 20.19880208 55.86513238 17.6640625 60.1953125 C17.0040625 59.8653125 16.3440625 59.5353125 15.6640625 59.1953125 C12.65941011 59.04965059 9.67450995 58.96076874 6.66796875 58.9140625 C5.76465317 58.89565308 4.86133759 58.87724365 3.9306488 58.85827637 C1.02935412 58.79943564 -1.87200289 58.74675893 -4.7734375 58.6953125 C-37.2815664 58.1092844 -37.2815664 58.1092844 -42.3359375 53.1953125 C-43.57294119 52.50482984 -44.8239618 51.83902188 -46.0859375 51.1953125 C-49.3359375 49.1953125 -49.3359375 49.1953125 -50.0859375 47.1953125 C-50.1684375 46.5353125 -50.2509375 45.8753125 -50.3359375 45.1953125 C-50.82707031 44.64617187 -51.31820313 44.09703125 -51.82421875 43.53125 C-55.58331941 37.72261383 -53.95927128 27.72922383 -52.57421875 21.1015625 C-50.11159404 11.67934624 -50.11159404 11.67934624 -47.3203125 9.9375 C-46.66546875 9.69257813 -46.010625 9.44765625 -45.3359375 9.1953125 C-44.6759375 8.5353125 -44.0159375 7.8753125 -43.3359375 7.1953125 C-42.6553125 7.0303125 -41.9746875 6.8653125 -41.2734375 6.6953125 C-40.6340625 6.5303125 -39.9946875 6.3653125 -39.3359375 6.1953125 C-39.0059375 5.5353125 -38.6759375 4.8753125 -38.3359375 4.1953125 C-26.18047057 -0.32765194 -12.77929761 -0.0883213 0 0 Z " fill="#1C1C1B" transform="translate(416.3359375,132.8046875)"/>
<path d="M0 0 C0.99 0.33 1.98 0.66 3 1 C4.58462689 1.08224363 6.17254783 1.10744658 7.75927734 1.09765625 C8.72392914 1.09435303 9.68858093 1.0910498 10.6824646 1.08764648 C11.72311066 1.07934814 12.76375671 1.0710498 13.8359375 1.0625 C15.44319199 1.05682007 15.44319199 1.05682007 17.08291626 1.05102539 C21.67283756 1.03465712 26.26267038 1.00655965 30.85253906 0.97949219 C34.20116769 0.96141207 37.54978184 0.94931283 40.8984375 0.9375 C41.9350351 0.92920166 42.97163269 0.92090332 44.03964233 0.91235352 C45.01059845 0.90905029 45.98155457 0.90574707 46.98193359 0.90234375 C47.83226166 0.89710693 48.68258972 0.89187012 49.5586853 0.88647461 C52.12549172 1.00583558 54.49666434 1.43450185 57 2 C56.57847656 2.61488281 56.15695313 3.22976562 55.72265625 3.86328125 C55.17480469 4.67152344 54.62695312 5.47976562 54.0625 6.3125 C53.24458984 7.51326172 53.24458984 7.51326172 52.41015625 8.73828125 C50.86162674 11.0258143 50.86162674 11.0258143 50 14 C49 15 48 16 47 17 C47 17.66 47 18.32 47 19 C46.34 19 45.68 19 45 19 C44.62875 19.8353125 44.62875 19.8353125 44.25 20.6875 C43.8375 21.450625 43.425 22.21375 43 23 C42.54133545 23.86028809 42.0826709 24.72057617 41.61010742 25.60693359 C37.51282811 29.36350752 33.35665392 28.67012475 27.98828125 28.6015625 C26.90548386 28.60956879 25.82268646 28.61757507 24.70707703 28.62582397 C21.24183913 28.64892151 17.77776977 28.63942961 14.3125 28.625 C10.86530034 28.62114272 7.41862318 28.6247 3.97148132 28.64559937 C1.82780525 28.65760864 -0.31601729 28.65515247 -2.4596405 28.63589478 C-8.52563931 28.65835216 -14.59644177 28.94108902 -20 32 C-20.33 32.99 -20.66 33.98 -21 35 C-22.33333333 36.33333333 -23.66666667 37.66666667 -25 39 C-25.69748583 40.31747324 -26.36959957 41.64914193 -27 43 C-27.18942488 31.01211146 -20.4988753 20.91805498 -13 12 C-11.89398438 10.66001953 -11.89398438 10.66001953 -10.765625 9.29296875 C-6.17528332 3.93006956 -6.17528332 3.93006956 -4 2 C-2.68 2 -1.36 2 0 2 C0 1.34 0 0.68 0 0 Z " fill="#1C1C1A" transform="translate(182,132)"/>
<path d="M0 0 C0.495 0.99 0.495 0.99 1 2 C2.32 2 3.64 2 5 2 C3.65888631 6.9472194 1.41441353 10.54623461 -1.75 14.5 C-2.19956055 15.06879883 -2.64912109 15.63759766 -3.11230469 16.22363281 C-11.39526885 26.59373697 -11.39526885 26.59373697 -15.50634766 27.63452148 C-20.23097349 28.12877479 -24.90143387 28.12277929 -29.6484375 28.09765625 C-30.66096588 28.0962413 -31.67349426 28.09482635 -32.71670532 28.09336853 C-35.93616751 28.08779143 -39.15555899 28.07524312 -42.375 28.0625 C-44.56380108 28.05748204 -46.75260325 28.05291965 -48.94140625 28.04882812 C-54.29429477 28.0378295 -59.64714233 28.0211142 -65 28 C-63.88131262 23.28973735 -62.10388122 19.75052315 -59 16 C-58.34 15.67 -57.68 15.34 -57 15 C-56.29605388 13.68596724 -55.63654342 12.3479743 -55 11 C-54.00585407 9.32983484 -53.0064275 7.66279327 -52 6 C-51.67 5.34 -51.34 4.68 -51 4 C-47.7180169 0.7180169 -43.15822449 1.04014009 -38.70117188 0.95724487 C-36.21559507 0.97926857 -33.73442405 1.04258546 -31.25 1.12109375 C-30.35128174 1.14470474 -29.45256348 1.16831573 -28.52661133 1.19264221 C-25.68421922 1.26860536 -22.84214727 1.35291515 -20 1.4375 C-18.06121306 1.4907883 -16.12241097 1.5435281 -14.18359375 1.59570312 C-9.45553028 1.72412814 -4.72773533 1.86003415 0 2 C0 1.34 0 0.68 0 0 Z " fill="#1B1B1A" transform="translate(425,201)"/>
<path d="M0 0 C6.04927748 1.57807238 10.90593461 3.24009459 16 7 C16.763125 7.28875 17.52625 7.5775 18.3125 7.875 C20 9 20 9 20.75 12.125 C20.87375 13.548125 20.87375 13.548125 21 15 C21.99 15.33 22.98 15.66 24 16 C24.62075243 35.81809601 24.62075243 35.81809601 21 43 C20.00882117 44.00874403 19.00942698 45.00951669 18 46 C17.67 46.99 17.34 47.98 17 49 C14.4375 50.1875 14.4375 50.1875 12 51 C10.90114958 47.70344873 10.96760948 45.39894127 11.0625 41.9375 C11.1144611 36.76448338 10.65637881 32.14050439 9.4375 27.12109375 C9 25 9 25 9 21 C8.34 20.67 7.68 20.34 7 20 C6.2890625 18.21484375 6.2890625 18.21484375 5.625 15.9375 C4.38116734 11.93809959 2.78354433 8.3925189 0.76953125 4.7265625 C0 3 0 3 0 0 Z M22 16 C23 18 23 18 23 18 Z " fill="#1A1B1A" transform="translate(451,171)"/>
<path d="M0 0 C10.10119807 0.39987363 19.36917377 1.95171091 29.1875 4.375 C30.46302734 4.67921875 31.73855469 4.9834375 33.05273438 5.296875 C36.70783868 6.17545169 40.35482465 7.08118534 44 8 C45.10166504 8.27231445 46.20333008 8.54462891 47.33837891 8.82519531 C48.33659668 9.08139648 49.33481445 9.33759766 50.36328125 9.6015625 C51.23895752 9.82408691 52.11463379 10.04661133 53.0168457 10.27587891 C55 11 55 11 56 13 C58.09759601 13.47365071 60.19708813 13.94024615 62.3046875 14.3671875 C66.99391075 15.46813557 71.61727994 16.99647083 76 19 C76.495 19.99 76.495 19.99 77 21 C77.804375 21.144375 78.60875 21.28875 79.4375 21.4375 C82 22 82 22 84 25 C79.61133143 25.37617159 77.69620237 24.22967772 74 22 C70.31887384 20.62704928 66.53415189 19.61457008 62.75 18.5625 C61.65115479 18.25683105 60.55230957 17.95116211 59.42016602 17.63623047 C30.45885069 9.86074466 1.74371025 9.29339367 -28 11 C-24.74282569 9.09185401 -22.10002504 8.66730954 -18.3515625 8.4375 C-17.26359375 8.36273438 -16.175625 8.28796875 -15.0546875 8.2109375 C-13.92289062 8.14132813 -12.79109375 8.07171875 -11.625 8 C-9.38755837 7.86144283 -7.15054044 7.71582828 -4.9140625 7.5625 C-3.4283374 7.47162109 -3.4283374 7.47162109 -1.91259766 7.37890625 C1.28028943 6.96353653 4.01666766 6.2073976 7 5 C7.33 4.34 7.66 3.68 8 3 C5.36 2.34 2.72 1.68 0 1 C0 0.67 0 0.34 0 0 Z " fill="#216CAB" transform="translate(296,87)"/>
<path d="M0 0 C-0.70703125 1.90625 -0.70703125 1.90625 -2 4 C-4.13671875 4.90625 -4.13671875 4.90625 -6.6875 5.5 C-11.3634726 6.72837597 -14.92029295 8.42801077 -19 11 C-18.071875 11.2165625 -18.071875 11.2165625 -17.125 11.4375 C-15 12 -15 12 -13 13 C-16.06117568 15.62386487 -16.73173127 16 -21 16 C-21 17.65 -21 19.3 -21 21 C-23.35438733 22.42944945 -24.48032433 23.08661261 -27.25 22.625 C-28.11625 22.315625 -28.11625 22.315625 -29 22 C-29 22.66 -29 23.32 -29 24 C-28.01 23.67 -27.02 23.34 -26 23 C-26 23.66 -26 24.32 -26 25 C-26.99 25 -27.98 25 -29 25 C-29 25.66 -29 26.32 -29 27 C-29.66 27 -30.32 27 -31 27 C-31 28.32 -31 29.64 -31 31 C-30.34 31 -29.68 31 -29 31 C-29.33 31.66 -29.66 32.32 -30 33 C-33.46712111 34.15570704 -36.5414956 34.32835293 -40.1875 34.5625 C-41.45980469 34.64628906 -42.73210937 34.73007813 -44.04296875 34.81640625 C-45.01878906 34.87699219 -45.99460938 34.93757813 -47 35 C-47 35.66 -47 36.32 -47 37 C-47.90878906 37.10248047 -47.90878906 37.10248047 -48.8359375 37.20703125 C-51.17647655 37.82656105 -51.17647655 37.82656105 -52.4140625 40.07421875 C-53.01347656 41.36779297 -53.01347656 41.36779297 -53.625 42.6875 C-54.04394531 43.58597656 -54.46289062 44.48445313 -54.89453125 45.41015625 C-56.09861552 48.23103212 -57.14692426 51.05301109 -58 54 C-58.66 54 -59.32 54 -60 54 C-59.95875 54.886875 -59.9175 55.77375 -59.875 56.6875 C-59.99897246 59.97277013 -60.61387904 62.05449295 -62 65 C-62.33 65 -62.66 65 -63 65 C-62.7405012 54.54927562 -59.66205622 45.09062085 -53 37 C-52.67 36.01 -52.34 35.02 -52 34 C-51.34 34 -50.68 34 -50 34 C-50 33.34 -50 32.68 -50 32 C-44.39 32 -38.78 32 -33 32 C-33.185625 30.040625 -33.37125 28.08125 -33.5625 26.0625 C-33.75358962 24.04544287 -33.90997602 22.02408755 -34 20 C-33 19 -33 19 -30.71484375 18.90234375 C-29.79832031 18.91394531 -28.88179687 18.92554687 -27.9375 18.9375 C-27.01839844 18.94652344 -26.09929687 18.95554687 -25.15234375 18.96484375 C-24.44207031 18.97644531 -23.73179687 18.98804687 -23 19 C-23.05800781 18.38511719 -23.11601562 17.77023438 -23.17578125 17.13671875 C-23.22089844 16.32847656 -23.26601562 15.52023438 -23.3125 14.6875 C-23.37050781 13.88699219 -23.42851562 13.08648437 -23.48828125 12.26171875 C-23 10 -23 10 -20.9921875 8.4375 C-17.29242921 6.66007043 -13.57844642 4.94497813 -9.8125 3.3125 C-9.08869141 2.99216797 -8.36488281 2.67183594 -7.61914062 2.34179688 C-2.25148254 0 -2.25148254 0 0 0 Z " fill="#1C68A6" transform="translate(205,95)"/>
<path d="M0 0 C0.99 0 1.98 0 3 0 C4.04892238 1.63631892 5.04906703 3.30485863 6 5 C6.66 5.33 7.32 5.66 8 6 C8.78125 7.77734375 8.78125 7.77734375 9.5 9.9375 C10.42402464 12.70455204 10.89137369 13.89137369 13 16 C13.82112513 18.50636622 14.46295272 21.03625656 15.12109375 23.58984375 C16.04019175 26.1102147 16.97262162 27.28887006 19 29 C18.67 29.99 18.34 30.98 18 32 C18.30270498 33.6725007 18.63905485 35.33909438 19 37 C19.07649781 38.61961498 19.10811681 40.24189445 19.09765625 41.86328125 C19.09443359 42.74951172 19.09121094 43.63574219 19.08789062 44.54882812 C19.07951172 45.46083984 19.07113281 46.37285156 19.0625 47.3125 C19.05798828 48.24384766 19.05347656 49.17519531 19.04882812 50.13476562 C19.03709234 52.42324373 19.02067363 54.71158808 19 57 C16.56596038 53.34894057 16.63050114 50.42111065 16.5 46.1875 C16.34141942 41.12691387 15.75176411 36.78581955 14 32 C13.875 29.125 13.875 29.125 14 27 C13.01 26.67 12.02 26.34 11 26 C11 24.68 11 23.36 11 22 C10.34 22.33 9.68 22.66 9 23 C9.14139481 25.25028329 9.28828003 27.50022206 9.4375 29.75 C9.55931641 31.62945312 9.55931641 31.62945312 9.68359375 33.546875 C9.92515522 36.18317553 10.24283934 38.48037294 11 41 C10.34 41 9.68 41 9 41 C8.67 41.66 8.34 42.32 8 43 C7.34 42.67 6.68 42.34 6 42 C6 36.39 6 30.78 6 25 C5.34 24.67 4.68 24.34 4 24 C4.18046875 23.28714844 4.3609375 22.57429688 4.546875 21.83984375 C5.64788313 14.93956001 3.36995977 7.97401959 0 2 C0 1.34 0 0.68 0 0 Z " fill="#1468AE" transform="translate(430,146)"/>
<path d="M0 0 C0.83637497 0.00848969 1.67274994 0.01697937 2.5344696 0.02572632 C5.19488651 0.0592028 7.85222489 0.13446413 10.51171875 0.2109375 C12.31961755 0.24104487 14.12756406 0.26841933 15.93554688 0.29296875 C20.35794942 0.35897437 24.77806296 0.46245037 29.19921875 0.5859375 C29.19921875 0.9159375 29.19921875 1.2459375 29.19921875 1.5859375 C27.21921875 1.9159375 25.23921875 2.2459375 23.19921875 2.5859375 C23.19921875 2.9159375 23.19921875 3.2459375 23.19921875 3.5859375 C7.85421875 4.0809375 7.85421875 4.0809375 -7.80078125 4.5859375 C-10.04952185 8.1736179 -10.04952185 8.1736179 -9.55078125 10.7734375 C-8.95069692 12.78409336 -8.95069692 12.78409336 -6.80078125 13.5859375 C-3.84808106 13.71901958 -0.91512544 13.79597381 2.0390625 13.83203125 C3.84180183 13.86496437 5.64453608 13.89817611 7.44726562 13.93164062 C10.29578213 13.9791036 13.14427728 14.02354152 15.99291992 14.06274414 C18.73768499 14.10240632 21.4820286 14.15395994 24.2265625 14.20703125 C25.07975571 14.2154454 25.93294891 14.22385956 26.81199646 14.23252869 C32.85919111 14.35925241 32.85919111 14.35925241 36.19921875 16.5859375 C31.09506181 16.77973231 25.99067186 16.9581938 20.88549805 17.12304688 C19.15228237 17.18110565 17.41919675 17.24320396 15.6862793 17.30957031 C13.18171925 17.40476234 10.67703648 17.48495821 8.171875 17.5625 C7.40899673 17.59469635 6.64611847 17.6268927 5.86012268 17.6600647 C-0.77484774 17.84090722 -7.18362021 17.33071152 -12.80078125 13.5859375 C-13.80078125 10.3359375 -13.80078125 10.3359375 -13.80078125 6.5859375 C-10.00083775 0.35435368 -7.04846225 -0.27101504 0 0 Z " fill="#121211" transform="translate(399.80078125,156.4140625)"/>
<path d="M0 0 C0.99 0.495 0.99 0.495 2 1 C2.40729228 3.32156597 2.74438677 5.6568787 3 8 C3.99 8.33 4.98 8.66 6 9 C6.33 9.99 6.66 10.98 7 12 C11.19318621 15.2946463 14.91253168 16.7790076 20 18 C19.67 18.66 19.34 19.32 19 20 C18.071875 19.835 17.14375 19.67 16.1875 19.5 C13.04378647 18.92251612 13.04378647 18.92251612 10 19 C11.32 19.99 12.64 20.98 14 22 C13.125 26.875 13.125 26.875 12 28 C11.7367754 31.94836905 11.91002627 34.60379269 14 38 C12.515 38.495 12.515 38.495 11 39 C9.50178941 35.62902617 9 33.79557881 9 30 C8.34 30 7.68 30 7 30 C7 29.34 7 28.68 7 28 C6.34 28 5.68 28 5 28 C1.62476112 18.50111344 -0.8722855 10.23481648 0 0 Z " fill="#191F20" transform="translate(153,184)"/>
<path d="M0 0 C4.74640511 0.81983361 8.99585307 2.43539002 13.4765625 4.16015625 C16.03116084 5.15789355 16.03116084 5.15789355 19 5 C19 5.66 19 6.32 19 7 C19.9075 7.1134375 20.815 7.226875 21.75 7.34375 C28.29290106 8.27845015 34.73585446 9.80168036 41.1953125 11.18359375 C46.45281638 12.29702502 51.66641572 13.33330196 57 14 C54.8614515 16.1385485 53.86724686 16.42655063 51 17 C51 17.66 51 18.32 51 19 C51.99 19.33 52.98 19.66 54 20 C36.35327122 18.12925389 19.47350933 10.21010805 3 4 C3 3.34 3 2.68 3 2 C2.01 1.67 1.02 1.34 0 1 C0 0.67 0 0.34 0 0 Z " fill="#1B6AA7" transform="translate(210,249)"/>
<path d="M0 0 C9.27734375 -0.09765625 9.27734375 -0.09765625 12 0 C13 1 13 1 13.09765625 3.94140625 C13.06510417 7.29427083 13.03255208 10.64713542 13 14 C8.71 14 4.42 14 0 14 C0 9.38 0 4.76 0 0 Z " fill="#36393B" transform="translate(167,98)"/>
<path d="M0 0 C0.58007812 0.13277344 1.16015625 0.26554687 1.7578125 0.40234375 C6.15770982 1.39704001 10.53894158 2.31368332 15 3 C15 3.66 15 4.32 15 5 C16.8871875 5.37125 16.8871875 5.37125 18.8125 5.75 C24.35537058 6.98370728 29.82875575 8.63600263 35 11 C35.495 11.99 35.495 11.99 36 13 C36.804375 13.144375 37.60875 13.28875 38.4375 13.4375 C41 14 41 14 43 17 C38.60689752 17.37655164 36.70368231 16.22248141 33 14 C31.23528877 13.36324167 29.44576348 12.79227049 27.640625 12.28125 C26.61445068 11.99000244 25.58827637 11.69875488 24.53100586 11.39868164 C23.44827393 11.1021167 22.36554199 10.80555176 21.25 10.5 C20.14213135 10.19247803 19.0342627 9.88495605 17.89282227 9.56811523 C9.00076941 7.15412593 0.11489549 5.31645671 -9 4 C-9 3.67 -9 3.34 -9 3 C-5.04 3 -1.08 3 3 3 C2.01 2.67 1.02 2.34 0 2 C0 1.34 0 0.68 0 0 Z " fill="#1E67A0" transform="translate(337,95)"/>
<path d="M0 0 C0.99 0.33 1.98 0.66 3 1 C3.88485449 3.50659448 4.57698509 5.86478541 5.1875 8.4375 C5.36474609 9.13166016 5.54199219 9.82582031 5.72460938 10.54101562 C7 15.62780526 7 15.62780526 7 18 C5.68 18.33 4.36 18.66 3 19 C3.66264086 25.06264222 3.66264086 25.06264222 5 31 C4.01 31.66 3.02 32.32 2 33 C1.87882813 32.35933594 1.75765625 31.71867187 1.6328125 31.05859375 C0.87020416 27.12236149 0.10363825 23.3224301 -1.125 19.5 C-2.26295116 14.94819534 -2.16895648 10.66507611 -2 6 C-1.34 6 -0.68 6 0 6 C0 4.02 0 2.04 0 0 Z " fill="#161718" transform="translate(128,168)"/>
<path d="M0 0 C-1 1 -1 1 -3.36012268 1.12025452 C-4.40603073 1.11803391 -5.45193878 1.11581329 -6.52954102 1.11352539 C-7.71068985 1.11344986 -8.89183868 1.11337433 -10.10877991 1.11329651 C-11.3941716 1.10813522 -12.67956329 1.10297394 -14.00390625 1.09765625 C-15.31205795 1.0962413 -16.62020966 1.09482635 -17.96800232 1.09336853 C-21.45162859 1.0895441 -24.93521339 1.07971446 -28.41882324 1.06866455 C-31.97126708 1.05844882 -35.52371759 1.05387056 -39.07617188 1.04882812 C-46.05079832 1.03809212 -53.02539717 1.0210166 -60 1 C-60 0.34 -60 -0.32 -60 -1 C-52.4725193 -1.17687391 -44.94486568 -1.34283553 -37.41684151 -1.49477577 C-33.921466 -1.56566892 -30.42625641 -1.64035295 -26.93115234 -1.72363281 C-22.91522247 -1.81915787 -18.89911642 -1.89831525 -14.8828125 -1.9765625 C-13.62445587 -2.00875885 -12.36609924 -2.0409552 -11.0696106 -2.0741272 C-9.90855804 -2.09429901 -8.74750549 -2.11447083 -7.55126953 -2.13525391 C-6.52534698 -2.15746002 -5.49942444 -2.17966614 -4.44241333 -2.20254517 C-2 -2 -2 -2 0 0 Z " fill="#131311" transform="translate(236,227)"/>
<path d="M0 0 C4.52081966 -0.02917237 9.04161488 -0.0468568 13.5625 -0.0625 C14.83931641 -0.07087891 16.11613281 -0.07925781 17.43164062 -0.08789062 C19.29272461 -0.09272461 19.29272461 -0.09272461 21.19140625 -0.09765625 C22.89598999 -0.10551147 22.89598999 -0.10551147 24.63500977 -0.11352539 C28.15208567 0.00513095 31.52771145 0.44219489 35 1 C35 1.66 35 2.32 35 3 C35.7425 3.226875 36.485 3.45375 37.25 3.6875 C40.57846408 5.27608513 41.96665911 6.94998866 44 10 C44.75 12.3125 44.75 12.3125 45 14 C42 13 42 13 40.5625 10.5 C39.28389509 7.85041166 39.28389509 7.85041166 37 7.375 C36.34 7.25125 35.68 7.1275 35 7 C34.319375 6.2265625 34.319375 6.2265625 33.625 5.4375 C31.96237867 3.66863275 31.96237867 3.66863275 28.8125 3.8125 C27.4203125 3.9053125 27.4203125 3.9053125 26 4 C26 3.34 26 2.68 26 2 C12.635 2.495 12.635 2.495 -1 3 C-0.67 2.01 -0.34 1.02 0 0 Z " fill="#131311" transform="translate(286,156)"/>
<path d="M0 0 C0.99 0.33 1.98 0.66 3 1 C4.64282636 1.13666737 6.28997938 1.22439723 7.9375 1.28125 C8.91589844 1.31863281 9.89429688 1.35601562 10.90234375 1.39453125 C11.92457031 1.42933594 12.94679687 1.46414062 14 1.5 C21.69811558 1.77028494 29.33516282 2.2229545 37 3 C37 3.33 37 3.66 37 4 C36.13310547 3.99476318 35.26621094 3.98952637 34.37304688 3.98413086 C31.1227239 3.96697589 27.87242419 3.95449514 24.62207031 3.94506836 C23.22167191 3.94007384 21.82127863 3.93327592 20.42089844 3.92456055 C6.19224698 3.12041671 6.19224698 3.12041671 -6 9 C-8.8125 10.25 -8.8125 10.25 -11 11 C-9.04676526 7.48417746 -7.13119496 4.56188679 -4 2 C-2.68 2 -1.36 2 0 2 C0 1.34 0 0.68 0 0 Z " fill="#1E2022" transform="translate(182,132)"/>
<path d="M0 0 C3.3 0 6.6 0 10 0 C11.07536348 3.22609045 11.14375422 5.62177584 11 9 C10.67 9.66 10.34 10.32 10 11 C6.7 11 3.4 11 0 11 C-1.35015859 6.94952424 -0.62084998 4.2079832 0 0 Z " fill="#363D3E" transform="translate(159,114)"/>
<path d="M0 0 C5.28 0 10.56 0 16 0 C16 0.33 16 0.66 16 1 C15.07058594 0.94457031 14.14117187 0.88914062 13.18359375 0.83203125 C5.77837064 0.65196806 5.77837064 0.65196806 -0.3828125 4.19921875 C-3.96058616 9.7517376 -6.23309159 15.65991687 -8 22 C-8.66 22 -9.32 22 -10 22 C-9.95875 22.886875 -9.9175 23.77375 -9.875 24.6875 C-9.99897246 27.97277013 -10.61387904 30.05449295 -12 33 C-12.33 33 -12.66 33 -13 33 C-12.7405012 22.54927562 -9.66205622 13.09062085 -3 5 C-2.67 4.01 -2.34 3.02 -2 2 C-1.34 2 -0.68 2 0 2 C0 1.34 0 0.68 0 0 Z " fill="#266499" transform="translate(155,127)"/>
<path d="M0 0 C2.64 0 5.28 0 8 0 C9.23076923 5.41538462 9.23076923 5.41538462 8.0625 8.375 C7.711875 8.91125 7.36125 9.4475 7 10 C6.34 9.67 5.68 9.34 5 9 C4.67 9.66 4.34 10.32 4 11 C4 10.34 4 9.68 4 9 C3.01 9.33 2.02 9.66 1 10 C0.34 9.67 -0.32 9.34 -1 9 C-0.67 6.03 -0.34 3.06 0 0 Z " fill="#333333" transform="translate(143,84)"/>
<path d="M0 0 C3.96 0 7.92 0 12 0 C12 0.66 12 1.32 12 2 C12.66 1.67 13.32 1.34 14 1 C15.9821173 1.06274328 17.96231968 1.19783231 19.9375 1.375 C20.99839844 1.46523438 22.05929687 1.55546875 23.15234375 1.6484375 C26 2 26 2 29 3 C30.40664926 3.14492123 31.8181133 3.24628931 33.23046875 3.31640625 C34.43413086 3.37924805 34.43413086 3.37924805 35.66210938 3.44335938 C36.49548828 3.48267578 37.32886719 3.52199219 38.1875 3.5625 C39.03248047 3.60568359 39.87746094 3.64886719 40.74804688 3.69335938 C42.83184433 3.79931518 44.91590103 3.9001502 47 4 C47 4.33 47 4.66 47 5 C31.12877088 5.50002706 15.57003869 4.20987128 0 1 C0 0.67 0 0.34 0 0 Z " fill="#25679E" transform="translate(273,271)"/>
<path d="M0 0 C0.33 0.66 0.66 1.32 1 2 C1.66 2.33 2.32 2.66 3 3 C2.67 5.31 2.34 7.62 2 10 C-0.64 10 -3.28 10 -6 10 C-6 7.36 -6 4.72 -6 2 C-2.25 0.875 -2.25 0.875 0 2 C0 1.34 0 0.68 0 0 Z " fill="#2F2F2F" transform="translate(156,101)"/>
<path d="M0 0 C0.99 0.66 1.98 1.32 3 2 C1.11428571 16.77142857 1.11428571 16.77142857 -2 23 C-2.66 23.33 -3.32 23.66 -4 24 C-4.66 24.99 -5.32 25.98 -6 27 C-6.99 26.67 -7.98 26.34 -9 26 C-8.67386719 25.55011719 -8.34773438 25.10023438 -8.01171875 24.63671875 C-2.91370591 17.13256415 -0.99220162 8.92981454 0 0 Z " fill="#10100F" transform="translate(351,187)"/>
<path d="M0 0 C0.99 1.485 0.99 1.485 2 3 C2.98095748 4.01868662 3.97702078 5.02351983 5 6 C4.67 6.99 4.34 7.98 4 9 C4.30270498 10.6725007 4.63905485 12.33909438 5 14 C5.07649781 15.61961498 5.10811681 17.24189445 5.09765625 18.86328125 C5.09282227 20.19262695 5.09282227 20.19262695 5.08789062 21.54882812 C5.07951172 22.46083984 5.07113281 23.37285156 5.0625 24.3125 C5.05798828 25.24384766 5.05347656 26.17519531 5.04882812 27.13476562 C5.03709234 29.42324373 5.02067363 31.71158808 5 34 C2.56596038 30.34894057 2.63050114 27.42111065 2.5 23.1875 C2.34099386 18.1133336 1.68260172 13.81224093 0 9 C-0.1953125 6.4453125 -0.1953125 6.4453125 -0.125 4.125 C-0.10695313 3.34382812 -0.08890625 2.56265625 -0.0703125 1.7578125 C-0.04710937 1.17773438 -0.02390625 0.59765625 0 0 Z " fill="#22629E" transform="translate(444,169)"/>
<path d="M0 0 C0.99 0 1.98 0 3 0 C4.04892238 1.63631892 5.04906703 3.30485863 6 5 C6.66 5.33 7.32 5.66 8 6 C8.78125 7.77734375 8.78125 7.77734375 9.5 9.9375 C10.42402464 12.70455204 10.89137369 13.89137369 13 16 C12.625 18.125 12.625 18.125 12 20 C10.19933758 17.0534615 8.49836105 14.11198065 7 11 C6.67 13.64 6.34 16.28 6 19 C5.67 19 5.34 19 5 19 C4.83564453 17.91332031 4.83564453 17.91332031 4.66796875 16.8046875 C3.77148904 11.33834783 2.75221273 6.87892257 0 2 C0 1.34 0 0.68 0 0 Z " fill="#1D5E92" transform="translate(430,146)"/>
<path d="M0 0 C5.071206 0.51480425 8.43821696 2.13502182 12.75 4.8125 C13.32621094 5.15603516 13.90242188 5.49957031 14.49609375 5.85351562 C17.75802056 7.8798641 19.55076979 9.44630252 21 13 C21.66 13.33 22.32 13.66 23 14 C23 14.99 23 15.98 23 17 C23.66 17.33 24.32 17.66 25 18 C24.67 18.99 24.34 19.98 24 21 C22 20 22 20 20.25 16.75 C16.82035529 10.5614529 11.15213492 7.13410647 5 4 C4.01 4 3.02 4 2 4 C2 3.34 2 2.68 2 2 C1.34 2 0.68 2 0 2 C0 1.34 0 0.68 0 0 Z " fill="#121210" transform="translate(324,136)"/>
<path d="M0 0 C-0.33 0.66 -0.66 1.32 -1 2 C-10.4574949 4.51578682 -20.30344015 4.22405401 -30 4 C-29.67 3.34 -29.34 2.68 -29 2 C-26.54736328 1.48168945 -26.54736328 1.48168945 -23.3203125 1.11328125 C-21.58587891 0.9131543 -21.58587891 0.9131543 -19.81640625 0.70898438 C-17.98916016 0.51272461 -17.98916016 0.51272461 -16.125 0.3125 C-14.30935547 0.09883789 -14.30935547 0.09883789 -12.45703125 -0.11914062 C-3.39618258 -1.13206086 -3.39618258 -1.13206086 0 0 Z " fill="#121210" transform="translate(326,225)"/>
<path d="M0 0 C2.96404505 2.80804268 5.44499019 5.18315774 7 9 C7.66 8.67 8.32 8.34 9 8 C9.33 9.98 9.66 11.96 10 14 C10.66 14 11.32 14 12 14 C12 14.66 12 15.32 12 16 C12.66 16 13.32 16 14 16 C14.66 18.31 15.32 20.62 16 23 C8.24045723 20.12609527 4.33331481 10.98308355 1 4 C0.328125 1.6640625 0.328125 1.6640625 0 0 Z " fill="#236398" transform="translate(148,198)"/>
<path d="M0 0 C2.35171131 0.59861742 4.6859378 1.26924352 7 2 C7.33 2.66 7.66 3.32 8 4 C9.32 4 10.64 4 12 4 C15.1875 4.875 15.1875 4.875 18 6 C19.24546405 8.49092811 18.7767578 9.41080733 18 12 C3.28804506 6.26260076 3.28804506 6.26260076 -1 1 C-0.67 0.67 -0.34 0.34 0 0 Z " fill="#111211" transform="translate(146,216)"/>
<path d="M0 0 C0.33 0 0.66 0 1 0 C1.33 3.3 1.66 6.6 2 10 C1.34 10 0.68 10 0 10 C-0.33 10.99 -0.66 11.98 -1 13 C-2.33333333 14.33333333 -3.66666667 15.66666667 -5 17 C-5.69748583 18.31747324 -6.36959957 19.64914193 -7 21 C-6.96395721 12.69213665 -4.3463261 6.991338 0 0 Z " fill="#13202C" transform="translate(162,154)"/>
<path d="M0 0 C2.31 0 4.62 0 7 0 C7 2.64 7 5.28 7 8 C4.69 8 2.38 8 0 8 C0 5.36 0 2.72 0 0 Z " fill="#323232" transform="translate(137,110)"/>
<path d="M0 0 C1.74627478 2.61941217 2.38722388 4.03824877 3 7 C1.824375 6.9175 0.64875 6.835 -0.5625 6.75 C-3.94199396 6.72009297 -5.89657249 7.26131257 -8.75 9.0625 C-12 11 -12 11 -14.203125 10.62109375 C-14.79609375 10.41613281 -15.3890625 10.21117187 -16 10 C-15.09636719 9.44570312 -14.19273437 8.89140625 -13.26171875 8.3203125 C-12.07029421 7.58857144 -10.87888897 6.85679896 -9.6875 6.125 C-9.09259766 5.76019531 -8.49769531 5.39539063 -7.88476562 5.01953125 C-5.22637701 3.38588461 -2.59656263 1.73104176 0 0 Z " fill="#1A67A3" transform="translate(405,232)"/>
<path d="M0 0 C-2 2 -2 2 -5.125 2.125 C-6.07375 2.08375 -7.0225 2.0425 -8 2 C-8 2.66 -8 3.32 -8 4 C-9.65 4.33 -11.3 4.66 -13 5 C-13 5.66 -13 6.32 -13 7 C-14.32 7.33 -15.64 7.66 -17 8 C-17 7.34 -17 6.68 -17 6 C-19.31 5.67 -21.62 5.34 -24 5 C-20.39561201 2.89056173 -16.61440413 2.1513179 -12.5625 1.375 C-11.90701172 1.2409375 -11.25152344 1.106875 -10.57617188 0.96875 C-7.00225146 0.26615381 -3.64175979 -0.15437132 0 0 Z " fill="#2169AA" transform="translate(240,87)"/>
<path d="M0 0 C0.671875 1.75 0.671875 1.75 1 4 C-0.109375 6 -0.109375 6 -1.75 8 C-2.28109375 8.66 -2.8121875 9.32 -3.359375 10 C-3.90078125 10.66 -4.4421875 11.32 -5 12 C-7.30361361 14.78122562 -7.30361361 14.78122562 -8.375 18.125 C-8.58125 18.74375 -8.7875 19.3625 -9 20 C-11.5625 21.25 -11.5625 21.25 -14 22 C-14.33 21.34 -14.66 20.68 -15 20 C-13.9790625 19.1028125 -13.9790625 19.1028125 -12.9375 18.1875 C-9.50852817 14.78783562 -7.15920767 10.71671658 -4.6484375 6.62109375 C-3.1979022 4.31467388 -1.66982754 2.15053546 0 0 Z " fill="#101010" transform="translate(468,137)"/>
<path d="M0 0 C-2 2 -2 2 -4.79736328 2.13525391 C-5.95993652 2.08288574 -7.12250977 2.03051758 -8.3203125 1.9765625 C-9.57714844 1.925 -10.83398438 1.8734375 -12.12890625 1.8203125 C-13.46094835 1.75543074 -14.7929795 1.69032366 -16.125 1.625 C-17.46480294 1.56676177 -18.80464687 1.50945844 -20.14453125 1.453125 C-23.43020732 1.31129726 -26.71515936 1.15985087 -30 1 C-30 0.67 -30 0.34 -30 0 C-26.50222024 -0.3979672 -23.00178576 -0.76412895 -19.5 -1.125 C-18.51773437 -1.23714844 -17.53546875 -1.34929687 -16.5234375 -1.46484375 C-10.46199072 -2.07098843 -5.81087748 -1.86778205 0 0 Z " fill="#10100F" transform="translate(320,134)"/>
<path d="M0 0 C-0.51152368 3.78527521 -1.20845842 5.44108688 -4 8 C-4.33 8.99 -4.66 9.98 -5 11 C-7.5625 12.1875 -7.5625 12.1875 -10 13 C-10.33 12.01 -10.66 11.02 -11 10 C-10.154375 9.2575 -9.30875 8.515 -8.4375 7.75 C-7.633125 6.8425 -6.82875 5.935 -6 5 C-6.04497842 2.72476911 -6.04497842 2.72476911 -7 1 C-4.53721199 -0.231394 -2.7204945 -0.07159196 0 0 Z " fill="#141414" transform="translate(473,209)"/>
<path d="M0 0 C0.66 0 1.32 0 2 0 C2.67789024 2.35143176 3.34240747 4.70538624 4 7.0625 C4.19078125 7.71927734 4.3815625 8.37605469 4.578125 9.05273438 C5.79596429 13.4674018 6.19227394 17.37941677 6 22 C0.90891316 15.91066084 -0.51842439 7.77636578 0 0 Z " fill="#20629D" transform="translate(142,176)"/>
<path d="M0 0 C0.66 0 1.32 0 2 0 C2.20496094 1.10859375 2.40992188 2.2171875 2.62109375 3.359375 C2.89316462 4.82292867 3.16530362 6.28646967 3.4375 7.75 C3.57220703 8.47960937 3.70691406 9.20921875 3.84570312 9.9609375 C4.47459267 13.33546675 5.14322173 16.67634694 6 20 C5.34 20 4.68 20 4 20 C3.67 20.66 3.34 21.32 3 22 C2.34 21.67 1.68 21.34 1 21 C1 15.39 1 9.78 1 4 C0.34 3.67 -0.32 3.34 -1 3 C-0.67 2.01 -0.34 1.02 0 0 Z " fill="#206499" transform="translate(435,167)"/>
<path d="M0 0 C0.33 0.66 0.66 1.32 1 2 C-0.8253125 2.185625 -0.8253125 2.185625 -2.6875 2.375 C-6.06479059 2.78891306 -8.89756695 3.54573451 -12 5 C-12 4.01 -12 3.02 -12 2 C-7.8803623 0.70756464 -4.33168317 -0.26252625 0 0 Z M-13 4 C-14.0975223 6.99324263 -14.67682892 7.84610901 -17.625 9.25 C-18.40875 9.4975 -19.1925 9.745 -20 10 C-19.1875 7.5625 -19.1875 7.5625 -18 5 C-15 4 -15 4 -13 4 Z " fill="#0D0D0D" transform="translate(390,135)"/>
<path d="M0 0 C3 1 3 1 4 3 C3.15695313 3.39832031 3.15695313 3.39832031 2.296875 3.8046875 C-0.17930222 5.09331034 -2.43844882 6.56130361 -4.75 8.125 C-5.54921875 8.66382813 -6.3484375 9.20265625 -7.171875 9.7578125 C-7.77515625 10.16773438 -8.3784375 10.57765625 -9 11 C-9.66 10.67 -10.32 10.34 -11 10 C-9.93119777 8.65499045 -8.84437492 7.32428562 -7.75 6 C-7.14671875 5.2575 -6.5434375 4.515 -5.921875 3.75 C-4 2 -4 2 0 2 C0 1.34 0 0.68 0 0 Z " fill="#11212E" transform="translate(182,132)"/>
<path d="M0 0 C4.74640511 0.81983361 8.99585307 2.43539002 13.4765625 4.16015625 C16.03116084 5.15789355 16.03116084 5.15789355 19 5 C19 5.66 19 6.32 19 7 C14.72672888 8.24213914 12.28458881 7.69146302 8.1875 6.0625 C7.21167969 5.68222656 6.23585937 5.30195313 5.23046875 4.91015625 C4.12638672 4.45962891 4.12638672 4.45962891 3 4 C3 3.34 3 2.68 3 2 C2.01 1.67 1.02 1.34 0 1 C0 0.67 0 0.34 0 0 Z " fill="#2F70A1" transform="translate(210,249)"/>
<path d="M0 0 C3.37705625 0.53725895 6.696686 1.11064623 10 2 C10 2.66 10 3.32 10 4 C10.78375 4.103125 11.5675 4.20625 12.375 4.3125 C15 5 15 5 17 8 C12.62265284 8.37520119 10.66922865 7.27142726 7 5 C4.68308546 4.27833809 2.35151077 3.59940471 0 3 C0 2.01 0 1.02 0 0 Z " fill="#3C7A9F" transform="translate(363,104)"/>
<path d="M0 0 C4.75 0.75 4.75 0.75 7 3 C7.99 3 8.98 3 10 3 C12.1875 5.5 12.1875 5.5 14 8 C8.57293549 8 3.99443534 6.84080321 0 3 C0 2.01 0 1.02 0 0 Z " fill="#1E2121" transform="translate(148,214)"/>
<path d="M0 0 C0.33 0 0.66 0 1 0 C1 6.6 1 13.2 1 20 C0.34 20 -0.32 20 -1 20 C-1 20.66 -1 21.32 -1 22 C-1.66 22 -2.32 22 -3 22 C-2.9278125 21.21496094 -2.855625 20.42992187 -2.78125 19.62109375 C-2.28988048 14.05906373 -1.87309815 8.58368122 -2 3 C-1.34 3 -0.68 3 0 3 C0 2.01 0 1.02 0 0 Z " fill="#10100E" transform="translate(331,173)"/>
<path d="M0 0 C3.40781445 1.41013012 4.94745499 2.96580302 7 6 C7.556875 6.7425 8.11375 7.485 8.6875 8.25 C9.3371875 9.11625 9.3371875 9.11625 10 10 C9.34 10.66 8.68 11.32 8 12 C8.32041397 14.60280568 8.32041397 14.60280568 9 17 C4.50616573 12.02468348 2.09814954 6.29444863 0 0 Z " fill="#16263A" transform="translate(423,136)"/>
<path d="M0 0 C0.66 0.33 1.32 0.66 2 1 C1.34 1.66 0.68 2.32 0 3 C1.32 3.66 2.64 4.32 4 5 C2.08594633 5.67413211 0.16863974 6.3390332 -1.75 7 C-2.81734375 7.37125 -3.8846875 7.7425 -4.984375 8.125 C-8 9 -8 9 -12 9 C-12 8.34 -12 7.68 -12 7 C-10.63875 6.62875 -10.63875 6.62875 -9.25 6.25 C-5.86506135 4.94810052 -4.39206586 3.64835863 -2 1 C-1.34 0.67 -0.68 0.34 0 0 Z " fill="#1D68A6" transform="translate(388,260)"/>
<path d="M0 0 C0.99 0.495 0.99 0.495 2 1 C2.625 3.5625 2.625 3.5625 3 6 C2.34 6 1.68 6 1 6 C1.33 8.31 1.66 10.62 2 13 C2.99 13 3.98 13 5 13 C5.33 14.32 5.66 15.64 6 17 C5.34 17 4.68 17 4 17 C4 18.65 4 20.3 4 22 C-0.63983372 15.04024943 -0.23973879 8.11116242 0 0 Z " fill="#132D3F" transform="translate(153,184)"/>
<path d="M0 0 C-1.38672676 4.16018027 -4.3454283 5.66865251 -7.8125 8.0625 C-8.44220703 8.50916016 -9.07191406 8.95582031 -9.72070312 9.41601562 C-12.71893808 11.52075768 -15.64081564 13.50232838 -19 15 C-17.65658689 11.88481501 -16.33074518 10.19247453 -13.59375 8.203125 C-12.93246094 7.71972656 -12.27117187 7.23632812 -11.58984375 6.73828125 C-10.55537109 6.00158203 -10.55537109 6.00158203 -9.5 5.25 C-8.46552734 4.49009766 -8.46552734 4.49009766 -7.41015625 3.71484375 C-2.27345856 0 -2.27345856 0 0 0 Z " fill="#1D5E97" transform="translate(198,119)"/>
<path d="M0 0 C1.32 1.32 2.64 2.64 4 4 C4.66 3.67 5.32 3.34 6 3 C6 3.66 6 4.32 6 5 C6.66 5 7.32 5 8 5 C8.12375 5.928125 8.12375 5.928125 8.25 6.875 C8.81258459 9.18437567 8.81258459 9.18437567 11.0625 10.25 C11.701875 10.4975 12.34125 10.745 13 11 C12.67 11.66 12.34 12.32 12 13 C6.51525288 11.67036433 3.09378428 7.50248145 0 3 C0 2.01 0 1.02 0 0 Z " fill="#141413" transform="translate(253,208)"/>
<path d="M0 0 C1.41750563 0.11509661 2.83401169 0.24253658 4.25 0.375 C5.03890625 0.44460938 5.8278125 0.51421875 6.640625 0.5859375 C9.085877 1.01507113 10.84836903 1.78600638 13 3 C12.01 3.495 12.01 3.495 11 4 C12.32 4.66 13.64 5.32 15 6 C13 7 13 7 9.9609375 6.00390625 C8.77757812 5.52824219 7.59421875 5.05257813 6.375 4.5625 C5.18648437 4.08941406 3.99796875 3.61632812 2.7734375 3.12890625 C1.85820312 2.75636719 0.94296875 2.38382812 0 2 C0 1.34 0 0.68 0 0 Z " fill="#246FA2" transform="translate(227,256)"/>
<path d="M0 0 C0.66 0.33 1.32 0.66 2 1 C2.40729228 3.32156597 2.74438677 5.6568787 3 8 C2.01 8.495 2.01 8.495 1 9 C1 8.34 1 7.68 1 7 C-5.93 6.505 -5.93 6.505 -13 6 C-13 5.67 -13 5.34 -13 5 C-7.06 4.505 -7.06 4.505 -1 4 C-0.67 2.68 -0.34 1.36 0 0 Z " fill="#101B22" transform="translate(432,153)"/>
<path d="M0 0 C0.99 0.66 1.98 1.32 3 2 C2.01 2 1.02 2 0 2 C-0.33 6.29 -0.66 10.58 -1 15 C-1.99 15 -2.98 15 -4 15 C-3.91245449 13.24908981 -3.80426627 11.49920449 -3.6875 9.75 C-3.62949219 8.77546875 -3.57148438 7.8009375 -3.51171875 6.796875 C-2.95363476 3.74658389 -2.03630224 2.29288724 0 0 Z " fill="#151515" transform="translate(271,166)"/>
<path d="M0 0 C0.66 0.33 1.32 0.66 2 1 C2.66666667 3 3.33333333 5 4 7 C6.01508358 7.73323796 6.01508358 7.73323796 8 8 C8 6.02 8 4.04 8 2 C8.33 2 8.66 2 9 2 C9 4.31 9 6.62 9 9 C6.03 9.66 3.06 10.32 0 11 C-1.35015859 6.94952424 -0.62084998 4.2079832 0 0 Z " fill="#282D32" transform="translate(159,114)"/>
<path d="M0 0 C0.33 0.66 0.66 1.32 1 2 C1.99 2.33 2.98 2.66 4 3 C4 4.32 4 5.64 4 7 C4.99 8.485 4.99 8.485 6 10 C5.625 12.1875 5.625 12.1875 5 14 C2.10270094 9.75062805 -0.37384677 5.8784597 -2 1 C-1.34 0.67 -0.68 0.34 0 0 Z " fill="#151818" transform="translate(135,186)"/>
<path d="M0 0 C1.32 0 2.64 0 4 0 C4.55353075 15.92938497 4.55353075 15.92938497 1 22 C0.34 21.67 -0.32 21.34 -1 21 C-0.67 19.68 -0.34 18.36 0 17 C0.66 17 1.32 17 2 17 C2.33 11.72 2.66 6.44 3 1 C2.01 0.67 1.02 0.34 0 0 Z " fill="#0F2136" transform="translate(433,171)"/>
<path d="M0 0 C0 0.66 0 1.32 0 2 C-6.39853522 4.39462284 -10.56465858 5.6580758 -17 3 C-17 2.67 -17 2.34 -17 2 C-15.10507994 1.66151348 -13.20901534 1.32943089 -11.3125 1 C-9.72888672 0.7215625 -9.72888672 0.7215625 -8.11328125 0.4375 C-5.35095938 0.04931926 -2.78257957 -0.08259976 0 0 Z " fill="#1B659F" transform="translate(339,261)"/>
<path d="M0 0 C-3.96 1.98 -3.96 1.98 -8 4 C-8 4.99 -8 5.98 -8 7 C-9.32 6.67 -10.64 6.34 -12 6 C-12 5.34 -12 4.68 -12 4 C-13.32 3.67 -14.64 3.34 -16 3 C-13.89936424 2.30178583 -11.79434263 1.61675528 -9.6875 0.9375 C-8.51574219 0.55464844 -7.34398437 0.17179688 -6.13671875 -0.22265625 C-3 -1 -3 -1 0 0 Z " fill="#1C68A1" transform="translate(365,255)"/>
<path d="M0 0 C1.134375 0.020625 2.26875 0.04125 3.4375 0.0625 C3.4375 0.7225 3.4375 1.3825 3.4375 2.0625 C6.4075 2.5575 6.4075 2.5575 9.4375 3.0625 C7.4375 5.0625 7.4375 5.0625 3.5625 5.4375 C0.28524032 5.37791346 -0.37937595 5.20899924 -3.0625 3.0625 C-3.5575 2.4025 -4.0525 1.7425 -4.5625 1.0625 C-3.5625 0.0625 -3.5625 0.0625 0 0 Z " fill="#131312" transform="translate(379.5625,184.9375)"/>
<path d="M0 0 C0.66 0 1.32 0 2 0 C2.41640288 7.2484945 1.44166784 13.16914355 -1 20 C-1.33 20 -1.66 20 -2 20 C-2.26404456 13.13484138 -1.25841946 6.74153283 0 0 Z " fill="#1F5E91" transform="translate(154,166)"/>
<path d="M0 0 C1.32 0 2.64 0 4 0 C4 0.66 4 1.32 4 2 C6.475 2.495 6.475 2.495 9 3 C5.8060093 3.93940903 2.88723695 4.16444357 -0.4375 4.1875 C-1.36433594 4.20167969 -2.29117187 4.21585937 -3.24609375 4.23046875 C-6.17833373 3.98507562 -8.33861389 3.22201577 -11 2 C-11 1.67 -11 1.34 -11 1 C-7.37 1 -3.74 1 0 1 C0 0.67 0 0.34 0 0 Z " fill="#1267B0" transform="translate(333,95)"/>
<path d="M0 0 C0.33 1.32 0.66 2.64 1 4 C1.66 4.33 2.32 4.66 3 5 C1.824375 5.12375 1.824375 5.12375 0.625 5.25 C-2.14749104 5.72806339 -2.14749104 5.72806339 -3.3125 8.0625 C-3.539375 8.701875 -3.76625 9.34125 -4 10 C-5.32 9.67 -6.64 9.34 -8 9 C-5.36 6.03 -2.72 3.06 0 0 Z " fill="#246EA9" transform="translate(421,217)"/>
<path d="M0 0 C0.99 0.33 1.98 0.66 3 1 C3.02696365 2.79158489 3.04637917 4.58328473 3.0625 6.375 C3.07410156 7.37273437 3.08570313 8.37046875 3.09765625 9.3984375 C3 12 3 12 2 14 C0.35 13.67 -1.3 13.34 -3 13 C-2.01 12.67 -1.02 12.34 0 12 C-0.08378906 11.21753906 -0.16757813 10.43507812 -0.25390625 9.62890625 C-0.35574219 8.61699219 -0.45757812 7.60507813 -0.5625 6.5625 C-0.66691406 5.55316406 -0.77132812 4.54382813 -0.87890625 3.50390625 C-0.91886719 2.67761719 -0.95882812 1.85132813 -1 1 C-0.67 0.67 -0.34 0.34 0 0 Z " fill="#11110F" transform="translate(209,189)"/>
<path d="M0 0 C0.33 0.66 0.66 1.32 1 2 C1.66 2 2.32 2 3 2 C3 3.65 3 5.3 3 7 C2.01 7 1.02 7 0 7 C0 6.34 0 5.68 0 5 C-2.97 7.475 -2.97 7.475 -6 10 C-4.6302836 6.00499382 -2.74277578 3.19990508 0 0 Z " fill="#14222C" transform="translate(169,144)"/>
<path d="M0 0 C0.33 0.66 0.66 1.32 1 2 C1.66 2.33 2.32 2.66 3 3 C2.67 5.31 2.34 7.62 2 10 C-0.64 10 -3.28 10 -6 10 C-5.67 9.01 -5.34 8.02 -5 7 C-3.35 7.33 -1.7 7.66 0 8 C0 5.36 0 2.72 0 0 Z " fill="#2C2C2C" transform="translate(156,101)"/>
<path d="M0 0 C0 0.99 0 1.98 0 3 C-1.58467728 2.71572583 -3.1677057 2.42225182 -4.75 2.125 C-6.07257813 1.88136719 -6.07257813 1.88136719 -7.421875 1.6328125 C-9.86947744 1.03203736 -11.80599857 0.22002883 -14 -1 C-9.01785011 -2.06760355 -4.66040125 -2.33020062 0 0 Z " fill="#27699A" transform="translate(363,103)"/>
<path d="M0 0 C-3.90869534 3.15702316 -7.8614939 6 -13 6 C-10.7550766 -0.7347702 -6.22920273 -0.31146014 0 0 Z " fill="#1C66A5" transform="translate(212,113)"/>
<path d="M0 0 C0.556875 0.495 1.11375 0.99 1.6875 1.5 C4.38162983 3.24754367 5.85375007 3.26218749 9 3 C7.25 5 7.25 5 5 7 C3.68 7 2.36 7 1 7 C1 6.34 1 5.68 1 5 C0.34 5 -0.32 5 -1 5 C-0.67 3.35 -0.34 1.7 0 0 Z " fill="#1F62B1" transform="translate(183,104)"/>
<path d="M0 0 C2.475 0.495 2.475 0.495 5 1 C5 1.66 5 2.32 5 3 C5.66 3 6.32 3 7 3 C7.66 5.31 8.32 7.62 9 10 C4.71095765 8.4114658 2.67654474 5.56872632 0 2 C0 1.34 0 0.68 0 0 Z " fill="#1E4567" transform="translate(155,211)"/>
<path d="M0 0 C0.99 0.33 1.98 0.66 3 1 C3 1.66 3 2.32 3 3 C5.64 3.33 8.28 3.66 11 4 C11 4.99 11 5.98 11 7 C6.22423661 6.5317879 2.95523655 5.75668002 -1 3 C-0.67 2.01 -0.34 1.02 0 0 Z " fill="#121211" transform="translate(275,198)"/>
<path d="M0 0 C1.32 0.33 2.64 0.66 4 1 C2.27072741 6.18781778 -1.21904213 8.60952106 -6 11 C-4.02 7.37 -2.04 3.74 0 0 Z " fill="#111110" transform="translate(178,171)"/>
<path d="M0 0 C0.99 0 1.98 0 3 0 C4.04892238 1.63631892 5.04906703 3.30485863 6 5 C6.66 5.33 7.32 5.66 8 6 C7.67 6.99 7.34 7.98 7 9 C5.1875 8.875 5.1875 8.875 3 8 C0 2.96428571 0 2.96428571 0 0 Z " fill="#0E3E73" transform="translate(430,146)"/>
<path d="M0 0 C0.33 0 0.66 0 1 0 C1.33663062 3.70293685 1.47736015 5.39534381 -0.875 8.375 C-3 10 -3 10 -5 10 C-5 10.66 -5 11.32 -5 12 C-5.66 11.67 -6.32 11.34 -7 11 C-5.85845641 9.16399255 -4.71165684 7.33125195 -3.5625 5.5 C-2.92441406 4.4790625 -2.28632813 3.458125 -1.62890625 2.40625 C-0.82259766 1.21515625 -0.82259766 1.21515625 0 0 Z " fill="#26689E" transform="translate(429,205)"/>
<path d="M0 0 C4.66666667 2.33333333 9.33333333 4.66666667 14 7 C12 7.8125 12 7.8125 9 8 C6.07941901 6.67695485 3.44375305 5.07833203 1 3 C0.67 2.01 0.34 1.02 0 0 Z " fill="#121212" transform="translate(159,196)"/>
<path d="M0 0 C0.33 0 0.66 0 1 0 C0.6381718 5.61457551 0.05319616 10.11488614 -3 15 C-3.99 15.495 -3.99 15.495 -5 16 C-4.34309381 12.21760329 -3.279869 8.78158474 -1.9375 5.1875 C-1.57527344 4.21167969 -1.21304687 3.23585937 -0.83984375 2.23046875 C-0.42412109 1.12638672 -0.42412109 1.12638672 0 0 Z " fill="#205A8D" transform="translate(435,189)"/>
<path d="M0 0 C0.66 0 1.32 0 2 0 C2.13277344 0.60328125 2.26554688 1.2065625 2.40234375 1.828125 C2.57894531 2.62734375 2.75554687 3.4265625 2.9375 4.25 C3.11152344 5.03890625 3.28554687 5.8278125 3.46484375 6.640625 C3.947556 8.76878703 4.46163178 10.88532842 5 13 C4.01 13.66 3.02 14.32 2 15 C1.66048381 13.43883181 1.32867456 11.87598662 1 10.3125 C0.814375 9.44238281 0.62875 8.57226562 0.4375 7.67578125 C0.01027953 5.06287036 -0.07616201 2.64186962 0 0 Z " fill="#11100F" transform="translate(128,186)"/>
<path d="M0 0 C0 0.66 0 1.32 0 2 C-5.45461169 3.38529821 -10.36718401 4.2396943 -16 4 C-11.0523795 1.11388804 -5.66834163 0 0 0 Z " fill="#1D67A1" transform="translate(368,270)"/>
<path d="M0 0 C-0.639375 0.28875 -1.27875 0.5775 -1.9375 0.875 C-4.15206079 1.82823451 -4.15206079 1.82823451 -5 4 C-7.3140622 4.73075648 -9.64828869 5.40138258 -12 6 C-12.33 5.34 -12.66 4.68 -13 4 C-11.40233897 3.13372601 -9.79660056 2.28233535 -8.1875 1.4375 C-7.29417969 0.96183594 -6.40085937 0.48617187 -5.48046875 -0.00390625 C-3 -1 -3 -1 0 0 Z " fill="#111110" transform="translate(339,219)"/>
<path d="M0 0 C0.99 0.66 1.98 1.32 3 2 C3 2.99 3 3.98 3 5 C2.01 5.33 1.02 5.66 0 6 C-0.66 6.66 -1.32 7.32 -2 8 C-2.66 7.67 -3.32 7.34 -4 7 C-3.39816251 4.97954558 -2.72693904 2.97888961 -2 1 C-1.34 0.67 -0.68 0.34 0 0 Z " fill="#3C3C3C" transform="translate(146,86)"/>
<path d="M0 0 C0.66 0.33 1.32 0.66 2 1 C0.25740319 10.59453303 0.25740319 10.59453303 -3 14 C-3.33 12.68 -3.66 11.36 -4 10 C-3.34 10 -2.68 10 -2 10 C-1.855625 9.278125 -1.71125 8.55625 -1.5625 7.8125 C-1.04166667 5.20833333 -0.52083333 2.60416667 0 0 Z " fill="#1F639E" transform="translate(445,208)"/>
<path d="M0 0 C0.99 0.33 1.98 0.66 3 1 C1.86059291 4.85645478 0.82205934 8.06505829 -2 11 C-2.99 11 -3.98 11 -5 11 C-3.89367046 8.70223864 -2.71939295 6.54671169 -1.375 4.375 C0.16701209 2.16890995 0.16701209 2.16890995 0 0 Z " fill="#111110" transform="translate(373,205)"/>
<path d="M0 0 C2.55337724 2.55337724 2.43261395 3.95274418 2.75 7.5 C2.84796875 8.4796875 2.9459375 9.459375 3.046875 10.46875 C3 13 3 13 1 15 C-0.44207941 12.11584117 -0.09394887 9.58278472 -0.0625 6.375 C-0.05347656 5.18648437 -0.04445313 3.99796875 -0.03515625 2.7734375 C-0.02355469 1.85820312 -0.01195312 0.94296875 0 0 Z " fill="#0F0F0F" transform="translate(472,191)"/>
<path d="M0 0 C1.76462683 3.08809695 2 4.23312136 2 8 C2.66 8.33 3.32 8.66 4 9 C4.33 9.99 4.66 10.98 5 12 C4.01 12 3.02 12 2 12 C0.5393715 9.35261084 0 8.10551666 0 5 C-0.66 4.67 -1.32 4.34 -2 4 C-1.34 2.68 -0.68 1.36 0 0 Z " fill="#141413" transform="translate(269,186)"/>
<path d="M0 0 C0.33 0.99 0.66 1.98 1 3 C-0.26239712 3.86658615 -1.53527501 4.71792059 -2.8125 5.5625 C-3.87404297 6.27599609 -3.87404297 6.27599609 -4.95703125 7.00390625 C-7 8 -7 8 -10 7 C-9.360625 6.731875 -8.72125 6.46375 -8.0625 6.1875 C-5.66868314 5.11332248 -5.66868314 5.11332248 -5 2 C-2 0 -2 0 0 0 Z " fill="#0F0F0E" transform="translate(269,137)"/>
<path d="M0 0 C0.66 0.66 1.32 1.32 2 2 C1.50628906 2.48210937 1.01257813 2.96421875 0.50390625 3.4609375 C-0.13675781 4.09257812 -0.77742188 4.72421875 -1.4375 5.375 C-2.07558594 6.00148437 -2.71367187 6.62796875 -3.37109375 7.2734375 C-5.07882176 8.91723061 -5.07882176 8.91723061 -6 11 C-6.66 11 -7.32 11 -8 11 C-7.1875 8.5625 -7.1875 8.5625 -6 6 C-5.01 5.67 -4.02 5.34 -3 5 C-1.8499169 3.03327085 -1.8499169 3.03327085 -1 1 C-0.67 0.67 -0.34 0.34 0 0 Z " fill="#215F98" transform="translate(432,234)"/>
<path d="M0 0 C2.97 0.495 2.97 0.495 6 1 C2.0949151 4.55007718 -0.97734643 5.81819916 -6 7 C-4.06745228 4.9754262 -2.36841312 3.57894208 0 2 C0 1.34 0 0.68 0 0 Z " fill="#1C61A6" transform="translate(400,256)"/>
<path d="M0 0 C0 0.66 0 1.32 0 2 C-1.65 2.33 -3.3 2.66 -5 3 C-5.33 3.99 -5.66 4.98 -6 6 C-8 6 -8 6 -11 5 C-7.92351092 1.43774949 -4.70156256 0 0 0 Z " fill="#111110" transform="translate(284,157)"/>
<path d="M0 0 C-2.45207641 2.45207641 -4.83314077 3.60658194 -8 5 C-9.32 5 -10.64 5 -12 5 C-12 4.34 -12 3.68 -12 3 C-4.71428571 -0.42857143 -4.71428571 -0.42857143 0 0 Z " fill="#26639E" transform="translate(224,108)"/>
<path d="M0 0 C-3.1254959 2.64465038 -6.08788267 3.84414715 -10 5 C-10.33 4.34 -10.66 3.68 -11 3 C-9.73581754 2.30034557 -8.46334598 1.61565237 -7.1875 0.9375 C-6.47980469 0.55464844 -5.77210938 0.17179688 -5.04296875 -0.22265625 C-3 -1 -3 -1 0 0 Z " fill="#1B5D94" transform="translate(386,246)"/>
<path d="M0 0 C0.33 0.99 0.66 1.98 1 3 C-0.21484375 5.04296875 -0.21484375 5.04296875 -1.9375 7.1875 C-2.50339844 7.90292969 -3.06929688 8.61835938 -3.65234375 9.35546875 C-4.09707031 9.89816406 -4.54179687 10.44085938 -5 11 C-6.125 7.25 -6.125 7.25 -5 5 C-4.34 5 -3.68 5 -3 5 C-2.67 4.01 -2.34 3.02 -2 2 C-1.34 2 -0.68 2 0 2 C0 1.34 0 0.68 0 0 Z " fill="#1D6199" transform="translate(441,222)"/>
<path d="M0 0 C0.99 0 1.98 0 3 0 C1.50902342 3.7952131 -0.75700849 5.61042731 -4 8 C-4.33 7.01 -4.66 6.02 -5 5 C-4.01 5 -3.02 5 -2 5 C-2 4.01 -2 3.02 -2 2 C-1.34 2 -0.68 2 0 2 C0 1.34 0 0.68 0 0 Z " fill="#122637" transform="translate(417,218)"/>
<path d="M0 0 C1.65 0 3.3 0 5 0 C3.515 3.96 3.515 3.96 2 8 C0 6 0 6 -0.125 2.875 C-0.08375 1.92625 -0.0425 0.9775 0 0 Z " fill="#2368A1" transform="translate(156,156)"/>
<path d="M0 0 C0.33 0.66 0.66 1.32 1 2 C-0.98 4.97 -0.98 4.97 -3 8 C-5 4.25 -5 4.25 -5 2 C-3.35 1.34 -1.7 0.68 0 0 Z " fill="#14202C" transform="translate(429,203)"/>
<path d="M0 0 C2.0625 1.6875 2.0625 1.6875 4 4 C3.75 6.75 3.75 6.75 3 9 C2.67 8.34 2.34 7.68 2 7 C1.34 6.67 0.68 6.34 0 6 C0 4.02 0 2.04 0 0 Z " fill="#101013" transform="translate(129,172)"/>
<path d="M0 0 C3.0916909 2.52956528 3.90931332 5.22454612 5 9 C4.01 9 3.02 9 2 9 C0.50178941 5.62902617 0 3.79557881 0 0 Z " fill="#1A6FB9" transform="translate(436,156)"/>
<path d="M0 0 C2.125 0.375 2.125 0.375 4 1 C2.35 2.98 0.7 4.96 -1 7 C-1.99 6.67 -2.98 6.34 -4 6 C-2.84826645 3.53199953 -1.95216435 1.95216435 0 0 Z " fill="#131312" transform="translate(223,152)"/>
<path d="M0 0 C1.32 0.99 2.64 1.98 4 3 C3.67 3.99 3.34 4.98 3 6 C1.68 6 0.36 6 -1 6 C-0.67 4.02 -0.34 2.04 0 0 Z " fill="#0F0F0E" transform="translate(367,144)"/>
<path d="M0 0 C0.33 0.99 0.66 1.98 1 3 C-0.75 6.1875 -0.75 6.1875 -3 9 C-3.99 9 -4.98 9 -6 9 C-4.02 6.03 -2.04 3.06 0 0 Z " fill="#10100F" transform="translate(235,136)"/>
<path d="M0 0 C3.375 0.3125 3.375 0.3125 7 1 C7.66 1.99 8.32 2.98 9 4 C6.75 4.25 6.75 4.25 4 4 C1.6875 2 1.6875 2 0 0 Z " fill="#4C7BA1" transform="translate(371,108)"/>
<path d="M0 0 C1.98 0 3.96 0 6 0 C6.66 1.32 7.32 2.64 8 4 C2.25 3.125 2.25 3.125 0 2 C0 1.34 0 0.68 0 0 Z " fill="#196C9E" transform="translate(227,256)"/>
<path d="M0 0 C2.76276177 0.52268466 5.3260876 1.10869587 8 2 C8 2.99 8 3.98 8 5 C6.35 4.67 4.7 4.34 3 4 C3 3.34 3 2.68 3 2 C2.01 1.67 1.02 1.34 0 1 C0 0.67 0 0.34 0 0 Z " fill="#37647B" transform="translate(210,249)"/>
<path d="M0 0 C1.32 0.66 2.64 1.32 4 2 C1.03 4.475 1.03 4.475 -2 7 C-2.125 4.625 -2.125 4.625 -2 2 C-1.34 1.34 -0.68 0.68 0 0 Z " fill="#0F0F0F" transform="translate(364,219)"/>
<path d="M0 0 C2.64752004 2.57784846 4.94432065 4.91648098 7 8 C4.03824877 7.38722388 2.61941217 6.74627478 0 5 C-0.1875 2.375 -0.1875 2.375 0 0 Z " fill="#121210" transform="translate(367,176)"/>
<path d="M0 0 C0.33 0.66 0.66 1.32 1 2 C-0.258125 2.185625 -1.51625 2.37125 -2.8125 2.5625 C-3.87404297 2.71912109 -3.87404297 2.71912109 -4.95703125 2.87890625 C-7 3 -7 3 -10 2 C-6.49223216 0.39644899 -3.85645121 -0.22036864 0 0 Z " fill="#131313" transform="translate(390,135)"/>
<path d="M0 0 C2.97 0.495 2.97 0.495 6 1 C4.68 1.33 3.36 1.66 2 2 C2 3.98 2 5.96 2 8 C1.34 8 0.68 8 0 8 C0 5.36 0 2.72 0 0 Z " fill="#2F2F2F" transform="translate(137,110)"/>
<path d="M0 0 C0.66 0.33 1.32 0.66 2 1 C1.34 2.32 0.68 3.64 0 5 C-0.66 4.67 -1.32 4.34 -2 4 C-2.33 4.66 -2.66 5.32 -3 6 C-3 5.34 -3 4.68 -3 4 C-3.66 3.67 -4.32 3.34 -5 3 C-2.625 1.4375 -2.625 1.4375 0 0 Z " fill="#2C2C2C" transform="translate(150,89)"/>
<path d="M0 0 C-2.3125 2.0625 -2.3125 2.0625 -5 4 C-5.99 3.67 -6.98 3.34 -8 3 C-8 2.34 -8 1.68 -8 1 C-5.29120665 -0.35439668 -2.99066732 -0.06501451 0 0 Z " fill="#146CAD" transform="translate(393,243)"/>
<path d="M0 0 C1.98 0 3.96 0 6 0 C6 0.66 6 1.32 6 2 C5.34 2 4.68 2 4 2 C4.33 2.99 4.66 3.98 5 5 C4.01 4.67 3.02 4.34 2 4 C2 3.34 2 2.68 2 2 C1.34 2 0.68 2 0 2 C0 1.34 0 0.68 0 0 Z " fill="#171713" transform="translate(310,203)"/>
<path d="M0 0 C2 2 2 2 2.125 5.125 C2.08375 6.07375 2.0425 7.0225 2 8 C1.34 8 0.68 8 0 8 C-0.38063221 5.6739143 -0.71269945 3.33944736 -1 1 C-0.67 0.67 -0.34 0.34 0 0 Z " fill="#151513" transform="translate(248,192)"/>
<path d="M0 0 C0.99 0.33 1.98 0.66 3 1 C3 2.98 3 4.96 3 7 C2.01 7 1.02 7 0 7 C-0.38133299 5.0085944 -0.71325582 3.00720923 -1 1 C-0.67 0.67 -0.34 0.34 0 0 Z " fill="#141310" transform="translate(458,184)"/>
<path d="M0 0 C2 2 2 2 2.1953125 3.9453125 C2.13020833 5.96354167 2.06510417 7.98177083 2 10 C0.4375 8.9375 0.4375 8.9375 -1 7 C-0.6875 3.3125 -0.6875 3.3125 0 0 Z " fill="#236EAC" transform="translate(151,184)"/>
<path d="M0 0 C-0.66 1.32 -1.32 2.64 -2 4 C-4.31 4 -6.62 4 -9 4 C-6.43425105 1.43425105 -3.68548192 0 0 0 Z " fill="#23639D" transform="translate(205,95)"/>
<path d="M0 0 C2 3 2 3 1.625 5.6875 C1.41875 6.450625 1.2125 7.21375 1 8 C-1 6 -1 6 -1.1875 3.4375 C-1 1 -1 1 0 0 Z " fill="#2268AC" transform="translate(154,200)"/>
<path d="M0 0 C2.79872437 2.52788007 4.45773019 4.20411134 5 8 C3.0625 7.375 3.0625 7.375 1 6 C0.25 2.875 0.25 2.875 0 0 Z " fill="#0F0E0D" transform="translate(133,200)"/>
<path d="M0 0 C0.66 0 1.32 0 2 0 C2 0.66 2 1.32 2 2 C2.99 2.33 3.98 2.66 5 3 C4.01 4.485 4.01 4.485 3 6 C2.34 6 1.68 6 1 6 C0.67 4.02 0.34 2.04 0 0 Z " fill="#0F1514" transform="translate(154,190)"/>
<path d="M0 0 C0.66 1.32 1.32 2.64 2 4 C0.68 4.99 -0.64 5.98 -2 7 C-2.66 6.67 -3.32 6.34 -4 6 C-2.68 4.02 -1.36 2.04 0 0 Z " fill="#121212" transform="translate(171,182)"/>
<path d="M0 0 C1.67542976 0.28604898 3.34385343 0.61781233 5 1 C3.68 2.32 2.36 3.64 1 5 C0.34 3.68 -0.32 2.36 -1 1 C-0.67 0.67 -0.34 0.34 0 0 Z " fill="#2168A7" transform="translate(167,140)"/>
<path d="M0 0 C0.66 0.33 1.32 0.66 2 1 C0.12050295 4.57104439 -1.17053157 6.54744301 -5 8 C-3.8141763 4.62496331 -2.72426311 2.35277269 0 0 Z " fill="#1D6597" transform="translate(153,131)"/>
<path d="M0 0 C-1 3 -1 3 -3.375 4.75 C-6 6 -6 6 -9 5 C-7.87926138 4.16094435 -6.75325453 3.32892169 -5.625 2.5 C-4.99851563 2.0359375 -4.37203125 1.571875 -3.7265625 1.09375 C-2 0 -2 0 0 0 Z " fill="#1764A5" transform="translate(198,119)"/>
<path d="M0 0 C0.99 0 1.98 0 3 0 C3 1.65 3 3.3 3 5 C2.01 5.33 1.02 5.66 0 6 C-1.24546405 3.50907189 -0.7767578 2.58919267 0 0 Z " fill="#3C3C3C" transform="translate(139,112)"/>
<path d="M0 0 C0.33 0 0.66 0 1 0 C1 1.98 1 3.96 1 6 C-0.32 6 -1.64 6 -3 6 C-3 4.68 -3 3.36 -3 2 C-2.01 2 -1.02 2 0 2 C0 1.34 0 0.68 0 0 Z " fill="#3F3F3F" transform="translate(155,103)"/>
<path d="M0 0 C1.98 0 3.96 0 6 0 C6 0.33 6 0.66 6 1 C4.02 1 2.04 1 0 1 C0 0.67 0 0.34 0 0 Z " fill="#060606" transform="translate(302,131)"/>
<path d="M0 0 C4 1 4 1 4 1 Z " fill="#000000" transform="translate(388,133)"/>
<path d="M0 0 C0.66 0 1.32 0 2 0 C1.67 0.66 1.34 1.32 1 2 C0.67 1.34 0.34 0.68 0 0 Z " fill="#070707" transform="translate(162,196)"/>
<path d="M0 0 C0.66 0 1.32 0 2 0 C1.67 0.66 1.34 1.32 1 2 C0.67 1.34 0.34 0.68 0 0 Z " fill="#000000" transform="translate(206,192)"/>
<path d="" fill="#000000" transform="translate(0,0)"/>
<path d="M0 0 C0.66 0.66 1.32 1.32 2 2 C1.34 2 0.68 2 0 2 C0 1.34 0 0.68 0 0 Z " fill="#093D47" transform="translate(447,172)"/>
<path d="M0 0 C3 1 3 1 3 1 Z " fill="#000000" transform="translate(456,171)"/>
<path d="" fill="#000000" transform="translate(0,0)"/>
<path d="M0 0 C3 1 3 1 3 1 Z " fill="#181818" transform="translate(394,169)"/>
<path d="M0 0 C0.66 0 1.32 0 2 0 C1.67 0.66 1.34 1.32 1 2 C0.67 1.34 0.34 0.68 0 0 Z " fill="#000000" transform="translate(274,164)"/>
<path d="M0 0 C3 1 3 1 3 1 Z " fill="#000000" transform="translate(277,133)"/>
<path d="M0 0 C2 1 2 1 2 1 Z " fill="#4A5A85" transform="translate(218,250)"/>
<path d="M0 0 C2 1 2 1 2 1 Z " fill="#000000" transform="translate(296,230)"/>
<path d="M0 0 C2 1 2 1 2 1 Z " fill="#002A2A" transform="translate(404,229)"/>
<path d="M0 0 C2 1 2 1 2 1 Z " fill="#000000" transform="translate(232,229)"/>
<path d="M0 0 C2 1 2 1 2 1 Z " fill="#000000" transform="translate(256,217)"/>
<path d="" fill="#191919" transform="translate(0,0)"/>
<path d="M0 0 C2 1 2 1 2 1 Z " fill="#202020" transform="translate(427,201)"/>
<path d="M0 0 C2 1 2 1 2 1 Z " fill="#0E0E0E" transform="translate(378,201)"/>
<path d="M0 0 C2 1 2 1 2 1 Z " fill="#000000" transform="translate(315,201)"/>
<path d="M0 0 C2 1 2 1 2 1 Z " fill="#000000" transform="translate(200,201)"/>
<path d="M0 0 C2 1 2 1 2 1 Z " fill="#000000" transform="translate(173,201)"/>
<path d="" fill="#000000" transform="translate(0,0)"/>
<path d="" fill="#191919" transform="translate(0,0)"/>
<path d="M0 0 C2 1 2 1 2 1 Z " fill="#272727" transform="translate(382,190)"/>
<path d="" fill="#191919" transform="translate(0,0)"/>
<path d="" fill="#191944" transform="translate(0,0)"/>
<path d="M0 0 C2 1 2 1 2 1 Z " fill="#202020" transform="translate(165,187)"/>
<path d="" fill="#131313" transform="translate(0,0)"/>
<path d="" fill="#181818" transform="translate(0,0)"/>
<path d="" fill="#2B3E4B" transform="translate(0,0)"/>
<path d="" fill="#000000" transform="translate(0,0)"/>
<path d="" fill="#191919" transform="translate(0,0)"/>
<path d="M0 0 C2 1 2 1 2 1 Z " fill="#33334C" transform="translate(449,174)"/>
<path d="" fill="#0A0A0A" transform="translate(0,0)"/>
<path d="" fill="#001212" transform="translate(0,0)"/>
<path d="" fill="#206080" transform="translate(0,0)"/>
<path d="" fill="#1D1D1D" transform="translate(0,0)"/>
<path d="" fill="#0B0B0B" transform="translate(0,0)"/>
<path d="" fill="#000000" transform="translate(0,0)"/>
<path d="M0 0 C2 1 2 1 2 1 Z " fill="#000000" transform="translate(281,132)"/>
<path d="M0 0 C2 1 2 1 2 1 Z " fill="#000000" transform="translate(296,131)"/>
<path d="" fill="#646464" transform="translate(0,0)"/>
<path d="M0 0 C2 1 2 1 2 1 Z " fill="#2A5555" transform="translate(177,112)"/>
<path d="M0 0 C2 1 2 1 2 1 Z " fill="#4040BF" transform="translate(368,109)"/>
<path d="M0 0 C2 1 2 1 2 1 Z " fill="#203030" transform="translate(227,108)"/>
<path d="M0 0 C2 1 2 1 2 1 Z " fill="#000000" transform="translate(142,108)"/>
<path d="M0 0 C2 1 2 1 2 1 Z " fill="#608080" transform="translate(361,107)"/>
<path d="M0 0 C2 1 2 1 2 1 Z " fill="#2A2A2A" transform="translate(147,83)"/>
<path d="" fill="#000000" transform="translate(0,0)"/>
<path d="" fill="#000000" transform="translate(0,0)"/>
<path d="" fill="#1E1E1E" transform="translate(0,0)"/>
<path d="" fill="#000000" transform="translate(0,0)"/>
<path d="" fill="#000000" transform="translate(0,0)"/>
<path d="" fill="#000000" transform="translate(0,0)"/>
<path d="" fill="#000000" transform="translate(0,0)"/>
<path d="" fill="#000000" transform="translate(0,0)"/>
<path d="" fill="#2A2A2A" transform="translate(0,0)"/>
<path d="" fill="#000000" transform="translate(0,0)"/>
<path d="" fill="#202020" transform="translate(0,0)"/>
<path d="" fill="#000000" transform="translate(0,0)"/>
<path d="" fill="#000000" transform="translate(0,0)"/>
<path d="" fill="#0D0D0D" transform="translate(0,0)"/>
<path d="" fill="#121212" transform="translate(0,0)"/>
<path d="" fill="#000000" transform="translate(0,0)"/>
<path d="" fill="#202020" transform="translate(0,0)"/>
<path d="" fill="#1A1A1A" transform="translate(0,0)"/>
<path d="" fill="#000000" transform="translate(0,0)"/>
<path d="" fill="#000000" transform="translate(0,0)"/>
<path d="" fill="#242424" transform="translate(0,0)"/>
<path d="" fill="#000000" transform="translate(0,0)"/>
<path d="" fill="#222222" transform="translate(0,0)"/>
<path d="" fill="#000000" transform="translate(0,0)"/>
<path d="" fill="#000000" transform="translate(0,0)"/>
<path d="" fill="#2A2A2A" transform="translate(0,0)"/>
<path d="" fill="#000000" transform="translate(0,0)"/>
<path d="" fill="#000000" transform="translate(0,0)"/>
<path d="" fill="#242424" transform="translate(0,0)"/>
<path d="" fill="#000000" transform="translate(0,0)"/>
<path d="" fill="#000000" transform="translate(0,0)"/>
<path d="" fill="#000000" transform="translate(0,0)"/>
<path d="" fill="#000000" transform="translate(0,0)"/>
<path d="" fill="#000000" transform="translate(0,0)"/>
<path d="" fill="#242400" transform="translate(0,0)"/>
<path d="" fill="#000000" transform="translate(0,0)"/>
<path d="" fill="#1E1E1E" transform="translate(0,0)"/>
<path d="" fill="#203040" transform="translate(0,0)"/>
<path d="" fill="#005555" transform="translate(0,0)"/>
<path d="" fill="#000000" transform="translate(0,0)"/>
<path d="" fill="#333333" transform="translate(0,0)"/>
<path d="" fill="#000000" transform="translate(0,0)"/>
<path d="" fill="#404040" transform="translate(0,0)"/>
<path d="" fill="#000000" transform="translate(0,0)"/>
<path d="" fill="#008080" transform="translate(0,0)"/>
<path d="" fill="#000000" transform="translate(0,0)"/>
<path d="" fill="#202020" transform="translate(0,0)"/>
<path d="" fill="#000000" transform="translate(0,0)"/>
<path d="" fill="#000000" transform="translate(0,0)"/>
<path d="" fill="#000000" transform="translate(0,0)"/>
<path d="" fill="#000000" transform="translate(0,0)"/>
<path d="" fill="#141414" transform="translate(0,0)"/>
<path d="" fill="#000000" transform="translate(0,0)"/>
<path d="" fill="#242424" transform="translate(0,0)"/>
<path d="" fill="#000024" transform="translate(0,0)"/>
<path d="" fill="#000000" transform="translate(0,0)"/>
<path d="" fill="#000000" transform="translate(0,0)"/>
<path d="" fill="#000000" transform="translate(0,0)"/>
<path d="" fill="#1C3939" transform="translate(0,0)"/>
<path d="" fill="#000000" transform="translate(0,0)"/>
<path d="" fill="#000000" transform="translate(0,0)"/>
<path d="" fill="#000000" transform="translate(0,0)"/>
<path d="" fill="#1A1A1A" transform="translate(0,0)"/>
<path d="" fill="#242400" transform="translate(0,0)"/>
<path d="" fill="#141414" transform="translate(0,0)"/>
<path d="" fill="#000055" transform="translate(0,0)"/>
<path d="" fill="#000000" transform="translate(0,0)"/>
<path d="" fill="#008080" transform="translate(0,0)"/>
<path d="" fill="#000000" transform="translate(0,0)"/>
<path d="" fill="#2A2A2A" transform="translate(0,0)"/>
<path d="" fill="#1C1C1C" transform="translate(0,0)"/>
<path d="" fill="#000000" transform="translate(0,0)"/>
<path d="" fill="#1C1C1C" transform="translate(0,0)"/>
<path d="" fill="#000000" transform="translate(0,0)"/>
<path d="" fill="#000000" transform="translate(0,0)"/>
<path d="" fill="#202020" transform="translate(0,0)"/>
<path d="" fill="#1A1A1A" transform="translate(0,0)"/>
<path d="" fill="#000000" transform="translate(0,0)"/>
<path d="" fill="#000000" transform="translate(0,0)"/>
<path d="" fill="#000000" transform="translate(0,0)"/>
<path d="" fill="#1C1C1C" transform="translate(0,0)"/>
<path d="" fill="#2A2A2A" transform="translate(0,0)"/>
<path d="" fill="#000000" transform="translate(0,0)"/>
<path d="" fill="#171717" transform="translate(0,0)"/>
<path d="" fill="#000000" transform="translate(0,0)"/>
<path d="" fill="#000000" transform="translate(0,0)"/>
<path d="" fill="#1C1C1C" transform="translate(0,0)"/>
<path d="" fill="#000000" transform="translate(0,0)"/>
<path d="" fill="#000000" transform="translate(0,0)"/>
<path d="" fill="#000000" transform="translate(0,0)"/>
<path d="" fill="#171717" transform="translate(0,0)"/>
<path d="" fill="#000000" transform="translate(0,0)"/>
<path d="" fill="#202020" transform="translate(0,0)"/>
<path d="" fill="#000000" transform="translate(0,0)"/>
<path d="" fill="#000000" transform="translate(0,0)"/>
<path d="" fill="#242424" transform="translate(0,0)"/>
<path d="" fill="#242424" transform="translate(0,0)"/>
<path d="" fill="#000000" transform="translate(0,0)"/>
<path d="" fill="#171717" transform="translate(0,0)"/>
<path d="" fill="#000000" transform="translate(0,0)"/>
<path d="" fill="#000000" transform="translate(0,0)"/>
<path d="" fill="#000000" transform="translate(0,0)"/>
<path d="" fill="#171717" transform="translate(0,0)"/>
<path d="" fill="#000000" transform="translate(0,0)"/>
<path d="" fill="#242424" transform="translate(0,0)"/>
<path d="" fill="#151515" transform="translate(0,0)"/>
<path d="" fill="#000000" transform="translate(0,0)"/>
<path d="" fill="#1A1A1A" transform="translate(0,0)"/>
<path d="" fill="#000000" transform="translate(0,0)"/>
<path d="" fill="#000000" transform="translate(0,0)"/>
<path d="" fill="#2A2A2A" transform="translate(0,0)"/>
<path d="" fill="#000000" transform="translate(0,0)"/>
<path d="" fill="#000000" transform="translate(0,0)"/>
<path d="" fill="#000000" transform="translate(0,0)"/>
<path d="" fill="#204060" transform="translate(0,0)"/>
<path d="" fill="#555555" transform="translate(0,0)"/>
<path d="" fill="#555555" transform="translate(0,0)"/>
<path d="" fill="#555555" transform="translate(0,0)"/>
<path d="" fill="#404040" transform="translate(0,0)"/>
<path d="" fill="#000000" transform="translate(0,0)"/>
<path d="" fill="#333333" transform="translate(0,0)"/>
<path d="" fill="#555555" transform="translate(0,0)"/>
<path d="" fill="#555555" transform="translate(0,0)"/>
<path d="" fill="#244949" transform="translate(0,0)"/>
<path d="" fill="#333333" transform="translate(0,0)"/>
<path d="" fill="#000000" transform="translate(0,0)"/>
<path d="" fill="#555555" transform="translate(0,0)"/>
<path d="" fill="#000000" transform="translate(0,0)"/>
<path d="" fill="#404040" transform="translate(0,0)"/>
</svg>
